<!DOCTYPE svg PUBLIC "-//W3C//DTD SVG 20010904//EN" "http://www.w3.org/TR/2001/REC-SVG-20010904/DTD/svg10.dtd">
<svg version="1.0" xmlns="http://www.w3.org/2000/svg" width="516px" height="146px" viewBox="0 0 5160 1460" preserveAspectRatio="xMidYMid meet">
<g id="layer101" fill="#1c1c10" stroke="none">
<path d="M0 730 l0 -730 2580 0 2580 0 0 730 0 730 -2580 0 -2580 0 0 -730z"/>
</g>
<g id="layer102" fill="#612a1c" stroke="none">
<path d="M0 730 l0 -730 2580 0 2580 0 0 730 0 730 -2580 0 -2580 0 0 -730z m2000 615 c0 -9 -6 -12 -15 -9 -8 3 -31 -3 -50 -15 -35 -20 -35 -20 -25 -1 11 21 69 51 83 43 4 -2 7 -11 7 -18z m-470 6 c0 -5 -14 -14 -32 -20 -17 -6 -40 -19 -50 -28 -10 -9 -18 -11 -18 -5 0 16 59 62 81 62 10 0 19 -4 19 -9z m-460 -216 c0 -9 -9 -15 -25 -15 -15 0 -39 -7 -55 -15 -41 -21 -38 0 3 25 38 24 77 26 77 5z m375 -66 c11 -16 0 -21 -50 -25 -26 -1 -54 -9 -62 -16 -15 -12 -15 -11 -4 10 19 36 100 58 116 31z m330 -3 c38 -16 121 -89 137 -120 6 -12 -8 -4 -33 20 -65 60 -75 66 -125 75 -39 8 -51 6 -75 -12 -30 -21 -37 -16 -16 12 15 19 47 38 65 39 7 0 28 -6 47 -14z m477 -5 c30 -12 100 -78 123 -116 l17 -30 -23 27 c-70 79 -151 117 -208 97 -17 -6 -31 -15 -31 -20 0 -5 -5 -9 -11 -9 -17 0 14 43 42 58 24 12 46 10 91 -7z m654 -12 c24 -11 53 -34 65 -50 l20 -29 -49 31 c-83 51 -163 62 -225 30 -39 -20 -48 -15 -19 12 46 42 129 45 208 6z m1483 6 c37 -19 91 -70 91 -86 0 -7 -12 -1 -27 14 -41 39 -94 57 -166 57 -50 0 -70 -5 -91 -21 -19 -15 -26 -17 -26 -6 0 17 27 42 60 56 31 13 123 5 159 -14z m404 0 c37 -17 87 -61 87 -76 0 -5 -15 1 -32 14 -46 34 -91 47 -163 47 -54 0 -66 -4 -89 -26 -14 -15 -26 -22 -26 -16 0 19 50 71 73 76 36 7 115 -2 150 -19z m-4095 -1 c12 -8 22 -20 22 -26 0 -7 -6 -5 -12 4 -7 8 -22 20 -33 26 -11 6 -15 12 -10 12 6 0 21 -7 33 -16z m1846 1 c4 -11 -1 -15 -17 -15 -13 0 -32 -7 -43 -15 -25 -19 -35 -19 -28 0 7 16 50 44 70 45 7 0 14 -7 18 -15z m1013 -2 c2 -6 -9 -14 -24 -18 -15 -3 -38 -16 -50 -27 -18 -17 -23 -18 -23 -6 0 8 10 24 23 35 35 32 67 39 74 16z m233 4 c0 -8 -18 -19 -40 -26 -21 -6 -46 -21 -55 -34 -8 -12 -15 -15 -15 -8 0 7 15 28 34 47 34 34 76 46 76 21z m-2671 -44 c12 -24 19 -43 16 -43 -5 0 -45 75 -45 86 0 11 6 2 29 -43z m-312 -77 c18 -26 40 -71 48 -99 16 -54 19 -165 5 -207 -5 -16 -6 0 -3 41 9 105 -29 231 -90 298 -15 16 -17 22 -7 19 8 -2 30 -26 47 -52z m3574 -42 c49 -36 129 -124 129 -142 0 -6 -26 17 -57 50 -32 33 -86 77 -120 97 -35 21 -60 40 -57 44 10 9 54 -11 105 -49z m368 27 c58 -39 149 -128 168 -165 11 -21 -6 -8 -53 40 -38 39 -95 86 -126 104 -55 30 -73 50 -45 50 6 0 32 -13 56 -29z m-1898 1 c55 -37 120 -98 151 -141 31 -43 30 -43 -32 18 -36 34 -91 79 -122 98 -32 20 -58 37 -58 39 0 11 38 2 61 -14z m986 -9 c-4 -3 -7 0 -7 7 0 7 3 10 7 7 3 -4 3 -10 0 -14z m-2652 -13 c3 -5 4 -10 1 -10 -3 0 -8 5 -11 10 -3 6 -4 10 -1 10 3 0 8 -4 11 -10z m480 0 c3 -5 4 -10 1 -10 -3 0 -8 5 -11 10 -3 6 -4 10 -1 10 3 0 8 -4 11 -10z m555 -134 c36 -53 71 -96 78 -96 6 0 12 -4 12 -10 0 -22 -19 -7 -57 43 -74 99 -90 122 -107 157 -21 42 -10 29 74 -94z m-535 104 c3 -5 4 -10 1 -10 -3 0 -8 5 -11 10 -3 6 -4 10 -1 10 3 0 8 -4 11 -10z m2279 -164 c10 -16 13 -26 8 -22 -13 8 -101 141 -109 164 -4 15 41 -50 101 -142z m-2239 102 c16 -24 22 -38 14 -31 -15 12 -53 73 -46 73 2 0 17 -19 32 -42z m2379 18 c-3 -8 -17 -17 -32 -21 -15 -3 -39 -18 -54 -33 -29 -27 -35 -24 -17 9 21 39 117 81 103 45z m712 -132 c31 -13 48 -44 24 -44 -15 0 -81 61 -112 104 -43 60 -33 64 13 6 22 -29 56 -58 75 -66z m-3518 100 c12 -4 22 -11 22 -16 0 -14 -73 -5 -78 10 -4 13 19 16 56 6z m1577 -71 c11 -12 32 -27 48 -32 15 -6 27 -15 27 -21 0 -32 -68 14 -110 75 -35 51 -40 71 -8 29 13 -16 32 -39 43 -51z m1500 -5 c17 -15 35 -28 41 -28 15 0 36 -25 28 -33 -17 -16 -104 57 -133 111 -18 34 -13 37 12 6 12 -16 36 -41 52 -56z m-3305 62 c0 -13 -28 -25 -38 -16 -3 4 0 11 8 16 20 13 30 12 30 0z m440 0 c0 -5 -6 -10 -14 -10 -8 0 -18 5 -21 10 -3 6 3 10 14 10 12 0 21 -4 21 -10z m318 -106 c13 -13 19 -25 13 -28 -6 -4 -18 6 -28 21 -10 15 -28 39 -40 53 -13 14 -23 29 -23 35 1 5 13 -6 28 -25 15 -19 37 -44 50 -56z m-1371 44 c-3 -8 -6 -5 -6 6 -1 11 2 17 5 13 3 -3 4 -12 1 -19z m17 -195 c8 -24 11 -43 7 -43 -12 0 -41 123 -40 167 1 31 3 26 10 -22 5 -33 15 -79 23 -102z m866 103 c0 -5 -7 -1 -15 10 -8 10 -14 24 -14 29 0 6 6 1 14 -9 8 -11 15 -24 15 -30z m-790 -195 c0 -17 -18 -21 -24 -6 -3 9 0 15 9 15 8 0 15 -4 15 -9z m2994 -10 c21 -5 44 -15 50 -21 8 -9 -9 -10 -74 -5 -73 5 -90 3 -122 -13 -36 -19 -37 -19 -27 -1 23 43 91 59 173 40z m524 -13 c-3 -7 -31 -21 -64 -31 -73 -22 -259 -21 -259 1 0 11 28 14 125 16 69 2 136 8 150 14 34 15 53 15 48 0z m-3300 -22 c38 -20 85 -72 80 -88 -3 -8 -9 -4 -18 12 -13 25 -46 55 -84 77 -29 17 -11 16 22 -1z"/>
</g>
<g id="layer103" fill="#3e9901" stroke="none">
<path d="M0 730 l0 -730 2580 0 2580 0 0 730 0 730 -2580 0 -2580 0 0 -730z m2002 595 c3 -16 3 -24 1 -17 -8 22 -54 13 -84 -17 -32 -33 -37 -26 -14 20 15 28 74 63 86 50 4 -3 9 -19 11 -36z m-468 9 c4 -15 5 -29 1 -32 -3 -3 -5 0 -5 6 0 32 -84 -3 -101 -42 -8 -17 -8 -15 -4 9 7 35 56 85 84 85 12 0 21 -10 25 -26z m35 -129 l0 -20 -8 20 c-5 11 -11 36 -15 55 l-6 35 14 -35 c8 -19 15 -44 15 -55z m459 15 c0 -9 -3 -7 -8 5 -5 11 -8 29 -8 40 0 16 2 15 8 -5 4 -14 8 -32 8 -40z m21 -70 c0 -9 -4 -8 -9 5 -5 11 -9 27 -9 35 0 9 4 8 9 -5 5 -11 9 -27 9 -35z m-460 -20 c0 -9 -4 -8 -9 5 -5 11 -9 27 -9 35 0 9 4 8 9 -5 5 -11 9 -27 9 -35z m-519 3 c0 -10 10 -38 21 -63 27 -61 140 -259 150 -266 5 -3 27 -6 49 -7 31 -1 40 -5 40 -19 0 -14 -8 -18 -37 -18 -21 0 -43 4 -49 8 -16 11 -142 236 -162 289 -17 44 -21 48 -51 46 -18 0 -41 -9 -52 -19 -18 -16 -19 -16 -19 5 0 13 12 29 33 41 41 25 77 26 77 3z m999 -53 c0 -9 -4 -8 -9 5 -5 11 -9 27 -9 35 0 9 4 8 9 -5 5 -11 9 -27 9 -35z m-465 -3 c4 -19 3 -26 -4 -22 -5 3 -10 18 -10 32 0 32 5 28 14 -10z m-146 -19 c3 -15 -4 -18 -43 -18 -38 0 -52 -5 -76 -29 -33 -34 -34 -33 -14 14 16 40 44 55 95 52 24 -1 36 -7 38 -19z m317 8 c85 -36 165 -143 179 -241 6 -38 5 -38 -10 10 -22 67 -68 129 -123 164 -67 43 -94 47 -136 21 -25 -15 -35 -18 -35 -8 1 26 47 67 78 68 7 0 28 -6 47 -14z m478 -5 c30 -12 111 -91 130 -127 18 -34 49 -136 43 -141 -2 -2 -12 21 -21 52 -22 69 -87 144 -150 174 -56 26 -75 26 -108 1 -30 -24 -43 -13 -21 19 28 40 64 46 127 22z m615 4 c62 -19 113 -65 129 -120 13 -41 11 -40 -30 17 -31 42 -113 78 -176 78 -44 0 -99 -33 -118 -70 -11 -22 -13 -22 -12 -5 1 54 70 115 130 115 14 0 49 -7 77 -15z m1521 -10 c37 -19 91 -70 91 -86 0 -7 -12 -1 -27 14 -41 39 -94 57 -166 57 -50 0 -70 -5 -91 -21 -19 -15 -26 -17 -26 -6 0 17 27 42 60 56 31 13 123 5 159 -14z m404 0 c37 -17 87 -61 87 -76 0 -5 -15 1 -32 14 -46 34 -91 47 -163 47 -54 0 -66 -4 -89 -26 -14 -15 -26 -22 -26 -16 0 19 50 71 73 76 36 7 115 -2 150 -19z m-4278 5 c18 -5 1 -6 -45 -3 -41 3 -77 7 -79 9 -8 7 94 2 124 -6z m183 -6 c32 -22 27 -40 -5 -18 -16 10 -50 21 -78 25 l-50 6 55 2 c36 1 63 -4 78 -15z m1872 -86 c67 -214 118 -393 115 -397 -5 -4 -6 -2 -36 99 -12 41 -39 131 -60 199 -22 68 -39 130 -39 138 0 7 -6 16 -14 19 -18 7 -72 -21 -85 -43 -16 -28 -13 7 3 36 13 24 51 50 73 51 6 0 26 -46 43 -102z m987 85 c2 -6 -9 -14 -24 -18 -15 -3 -38 -16 -50 -27 -18 -17 -23 -18 -23 -6 0 8 10 24 23 35 35 32 67 39 74 16z m233 4 c0 -8 -18 -19 -40 -26 -21 -6 -46 -21 -55 -34 -8 -12 -15 -15 -15 -8 0 7 15 28 34 47 34 34 76 46 76 21z m-1691 -72 c0 -5 -6 1 -14 15 -8 14 -14 34 -14 45 0 13 5 8 14 -15 7 -19 14 -39 14 -45z m-449 -52 c0 -15 129 -208 164 -246 14 -15 31 -25 36 -22 12 8 13 -5 0 -25 -7 -12 -12 -11 -30 5 -47 42 -162 228 -186 298 -28 86 -31 122 -4 52 11 -27 20 -55 20 -62z m-843 3 c18 -26 40 -71 48 -99 16 -54 19 -165 5 -207 -5 -16 -6 0 -3 41 9 105 -29 231 -90 298 -15 16 -17 22 -7 19 8 -2 30 -26 47 -52z m1363 -97 c105 -156 115 -168 133 -169 19 0 23 -25 6 -36 -11 -6 -78 61 -79 80 0 4 -13 25 -28 45 -54 70 -93 140 -96 173 -2 18 -1 24 1 13 3 -11 31 -58 63 -106z m753 27 c61 -53 106 -116 112 -158 5 -30 5 -31 -5 -9 -26 61 -187 211 -225 211 -21 0 -36 25 -23 38 13 13 67 -19 141 -82z m1458 28 c49 -36 129 -124 129 -142 0 -6 -26 17 -57 50 -32 33 -86 77 -120 97 -35 21 -60 40 -57 44 10 9 54 -11 105 -49z m368 27 c58 -39 149 -128 168 -165 11 -21 -6 -8 -53 40 -38 39 -95 86 -126 104 -55 30 -73 50 -45 50 6 0 32 -13 56 -29z m-912 -8 c-4 -3 -7 0 -7 7 0 7 3 10 7 7 3 -4 3 -10 0 -14z m-3312 -49 c-58 -75 -68 -109 -68 -209 0 -58 5 -105 16 -132 9 -23 12 -45 8 -47 -16 -10 -41 97 -41 175 0 67 5 90 29 142 25 53 72 117 86 117 3 0 -11 -21 -30 -46z m932 -26 c-3 -8 -6 -5 -6 6 -1 11 2 17 5 13 3 -3 4 -12 1 -19z m2507 -132 c10 -16 13 -26 8 -22 -13 8 -101 141 -109 164 -4 15 41 -50 101 -142z m-1151 102 c22 -51 90 -118 121 -118 19 0 26 -5 26 -20 0 -51 -87 4 -142 89 -25 40 -37 81 -23 81 3 0 11 -15 18 -32z m1291 18 c-3 -8 -17 -17 -32 -21 -15 -3 -39 -18 -54 -33 -29 -27 -35 -24 -17 9 21 39 117 81 103 45z m-2610 -36 c8 0 16 -9 19 -20 4 -18 2 -20 -16 -14 -26 8 -37 22 -37 49 1 18 1 19 11 3 5 -10 16 -18 23 -18z m3322 -96 c31 -13 48 -44 24 -44 -15 0 -81 61 -112 104 -43 60 -33 64 13 6 22 -29 56 -58 75 -66z m-3726 81 c0 -7 -13 -18 -30 -24 -26 -9 -30 -8 -30 8 0 10 10 23 23 28 25 12 37 8 37 -12z m3285 -57 c17 -15 35 -28 41 -28 15 0 36 -25 28 -33 -17 -16 -104 57 -133 111 -18 34 -13 37 12 6 12 -16 36 -41 52 -56z m-3057 -35 c-3 -11 50 -110 63 -118 9 -6 49 -88 49 -101 0 -2 -4 -4 -10 -4 -5 0 -10 4 -10 10 0 5 -15 33 -34 62 -49 77 -78 137 -71 148 7 12 16 13 13 3z m197 -60 c9 -32 34 -107 56 -166 38 -105 49 -150 29 -115 -13 21 -110 309 -110 326 0 26 9 9 25 -45z m1224 -228 l-1 -20 -5 20 c-3 11 -13 47 -24 79 -10 33 -19 66 -19 75 1 9 12 -18 25 -59 14 -41 24 -84 24 -95z m-2189 36 c0 -17 -18 -21 -24 -6 -3 9 0 15 9 15 8 0 15 -4 15 -9z m2994 -10 c21 -5 44 -15 50 -21 8 -9 -9 -10 -74 -5 -73 5 -90 3 -122 -13 -36 -19 -37 -19 -27 -1 23 43 91 59 173 40z m524 -13 c-3 -7 -31 -21 -64 -31 -73 -22 -259 -21 -259 1 0 11 28 14 125 16 69 2 136 8 150 14 34 15 53 15 48 0z m-3300 -22 c38 -20 85 -72 80 -88 -3 -8 -9 -4 -18 12 -13 25 -46 55 -84 77 -29 17 -11 16 22 -1z"/>
</g>
<g id="layer104" fill="#506039" stroke="none">
<path d="M0 730 l0 -730 2580 0 2580 0 0 730 0 730 -2580 0 -2580 0 0 -730z m2002 595 c3 -16 3 -24 1 -17 -8 22 -54 13 -84 -17 -32 -33 -37 -26 -14 20 15 28 74 63 86 50 4 -3 9 -19 11 -36z m-468 9 c4 -15 5 -29 1 -32 -3 -3 -5 0 -5 6 0 32 -84 -3 -101 -42 -8 -17 -8 -15 -4 9 7 35 56 85 84 85 12 0 21 -10 25 -26z m35 -129 l0 -20 -8 20 c-5 11 -11 36 -15 55 l-6 35 14 -35 c8 -19 15 -44 15 -55z m459 15 c0 -9 -3 -7 -8 5 -5 11 -8 29 -8 40 0 16 2 15 8 -5 4 -14 8 -32 8 -40z m21 -70 c0 -9 -4 -8 -9 5 -5 11 -9 27 -9 35 0 9 4 8 9 -5 5 -11 9 -27 9 -35z m-460 -20 c0 -9 -4 -8 -9 5 -5 11 -9 27 -9 35 0 9 4 8 9 -5 5 -11 9 -27 9 -35z m-519 3 c0 -10 10 -38 21 -63 27 -61 140 -259 150 -266 5 -3 27 -6 49 -7 31 -1 40 -5 40 -19 0 -14 -8 -18 -37 -18 -21 0 -43 4 -49 8 -16 11 -142 236 -162 289 -17 44 -21 48 -51 46 -18 0 -41 -9 -52 -19 -18 -16 -19 -16 -19 5 0 13 12 29 33 41 41 25 77 26 77 3z m999 -53 c0 -9 -4 -8 -9 5 -5 11 -9 27 -9 35 0 9 4 8 9 -5 5 -11 9 -27 9 -35z m-465 -3 c4 -19 3 -26 -4 -22 -5 3 -10 18 -10 32 0 32 5 28 14 -10z m-146 -19 c3 -15 -4 -18 -43 -18 -38 0 -52 -5 -76 -29 -33 -34 -34 -33 -14 14 16 40 44 55 95 52 24 -1 36 -7 38 -19z m317 8 c85 -36 165 -143 179 -241 6 -38 5 -38 -10 10 -22 67 -68 129 -123 164 -67 43 -94 47 -136 21 -25 -15 -35 -18 -35 -8 1 26 47 67 78 68 7 0 28 -6 47 -14z m478 -5 c30 -12 111 -91 130 -127 18 -34 49 -136 43 -141 -2 -2 -12 21 -21 52 -22 69 -87 144 -150 174 -56 26 -75 26 -108 1 -30 -24 -43 -13 -21 19 28 40 64 46 127 22z m615 4 c62 -19 113 -65 129 -120 13 -41 11 -40 -30 17 -31 42 -113 78 -176 78 -44 0 -99 -33 -118 -70 -11 -22 -13 -22 -12 -5 1 54 70 115 130 115 14 0 49 -7 77 -15z m1521 -10 c37 -19 91 -70 91 -86 0 -7 -12 -1 -27 14 -41 39 -94 57 -166 57 -50 0 -70 -5 -91 -21 -19 -15 -26 -17 -26 -6 0 17 27 42 60 56 31 13 123 5 159 -14z m404 0 c37 -17 87 -61 87 -76 0 -5 -15 1 -32 14 -46 34 -91 47 -163 47 -54 0 -66 -4 -89 -26 -14 -15 -26 -22 -26 -16 0 19 50 71 73 76 36 7 115 -2 150 -19z m-4278 5 c18 -5 1 -6 -45 -3 -41 3 -77 7 -79 9 -8 7 94 2 124 -6z m183 -6 c32 -22 27 -40 -5 -18 -16 10 -50 21 -78 25 l-50 6 55 2 c36 1 63 -4 78 -15z m1872 -86 c67 -214 118 -393 115 -397 -5 -4 -6 -2 -36 99 -12 41 -39 131 -60 199 -22 68 -39 130 -39 138 0 7 -6 16 -14 19 -18 7 -72 -21 -85 -43 -16 -28 -13 7 3 36 13 24 51 50 73 51 6 0 26 -46 43 -102z m987 85 c2 -6 -9 -14 -24 -18 -15 -3 -38 -16 -50 -27 -18 -17 -23 -18 -23 -6 0 8 10 24 23 35 35 32 67 39 74 16z m233 4 c0 -8 -18 -19 -40 -26 -21 -6 -46 -21 -55 -34 -8 -12 -15 -15 -15 -8 0 7 15 28 34 47 34 34 76 46 76 21z m-1691 -72 c0 -5 -6 1 -14 15 -8 14 -14 34 -14 45 0 13 5 8 14 -15 7 -19 14 -39 14 -45z m-449 -52 c0 -15 129 -208 164 -246 14 -15 31 -25 36 -22 12 8 13 -5 0 -25 -7 -12 -12 -11 -30 5 -47 42 -162 228 -186 298 -28 86 -31 122 -4 52 11 -27 20 -55 20 -62z m-870 47 c11 -11 20 -22 20 -24 0 -2 12 -25 27 -52 31 -56 32 -57 40 -140 6 -62 -6 -177 -15 -140 -3 16 -7 13 -17 -15 -7 -18 -16 -43 -21 -54 -7 -18 -6 -19 12 -5 19 14 19 14 0 -7 -10 -13 -23 -20 -29 -16 -6 3 -7 1 -3 -5 9 -15 -78 -58 -136 -67 -25 -4 -61 -4 -78 0 l-32 7 58 57 c63 61 92 120 101 201 l5 45 -21 -27 c-11 -14 -21 -32 -21 -38 0 -7 -18 -39 -39 -71 -22 -33 -34 -57 -28 -54 7 4 -3 -7 -21 -23 -18 -16 -48 -34 -65 -39 -18 -5 -32 -14 -32 -20 0 -6 -3 -14 -6 -17 -14 -14 -39 101 -39 175 0 67 5 90 29 142 25 53 72 117 86 117 3 0 -11 -21 -30 -46 -43 -56 -61 -98 -70 -159 -9 -55 2 -155 17 -155 7 0 8 20 4 58 -12 107 50 247 136 309 56 40 124 74 132 66 3 -4 6 -1 6 5 0 17 7 15 30 -8z m1390 -141 c105 -156 115 -168 133 -169 19 0 23 -25 6 -36 -11 -6 -78 61 -79 80 0 4 -13 25 -28 45 -54 70 -93 140 -96 173 -2 18 -1 24 1 13 3 -11 31 -58 63 -106z m753 27 c61 -53 106 -116 112 -158 5 -30 5 -31 -5 -9 -26 61 -187 211 -225 211 -21 0 -36 25 -23 38 13 13 67 -19 141 -82z m1458 28 c49 -36 129 -124 129 -142 0 -6 -26 16 -57 49 -64 67 -166 135 -185 123 -10 -6 -10 -4 0 9 17 20 46 10 113 -39z m368 27 c58 -39 149 -128 168 -165 11 -21 -6 -8 -53 40 -38 39 -95 86 -126 104 -55 30 -73 50 -45 50 6 0 32 -13 56 -29z m-912 -8 c-4 -3 -7 0 -7 7 0 7 3 10 7 7 3 -4 3 -10 0 -14z m-2380 -75 c-3 -8 -6 -5 -6 6 -1 11 2 17 5 13 3 -3 4 -12 1 -19z m2507 -132 c10 -16 13 -26 8 -22 -13 8 -101 141 -109 164 -4 15 41 -50 101 -142z m-1151 102 c22 -51 90 -118 121 -118 19 0 26 -5 26 -20 0 -51 -87 4 -142 89 -25 40 -37 81 -23 81 3 0 11 -15 18 -32z m1291 18 c-3 -8 -17 -17 -32 -21 -15 -3 -39 -18 -54 -33 -29 -27 -35 -24 -17 9 21 39 117 81 103 45z m-2610 -36 c8 0 16 -9 19 -20 4 -18 2 -20 -16 -14 -26 8 -37 22 -37 49 1 18 1 19 11 3 5 -10 16 -18 23 -18z m3322 -96 c31 -13 48 -44 24 -44 -15 0 -81 61 -112 104 -43 60 -33 64 13 6 22 -29 56 -58 75 -66z m-3726 81 c0 -7 -13 -18 -30 -24 -26 -9 -30 -8 -30 8 0 10 10 23 23 28 25 12 37 8 37 -12z m3284 -55 c17 -14 39 -29 50 -35 10 -5 20 -17 22 -27 5 -36 -104 52 -135 110 -18 34 -13 37 11 6 13 -16 36 -40 52 -54z m-3056 -37 c-3 -11 50 -110 63 -118 9 -6 49 -88 49 -101 0 -2 -4 -4 -10 -4 -5 0 -10 4 -10 10 0 5 -15 33 -34 62 -49 77 -78 137 -71 148 7 12 16 13 13 3z m197 -60 c9 -32 34 -107 56 -166 38 -105 49 -150 29 -115 -13 21 -110 309 -110 326 0 26 9 9 25 -45z m2472 20 c-4 -3 -7 0 -7 7 0 7 3 10 7 7 3 -4 3 -10 0 -14z m-1248 -248 l-1 -20 -5 20 c-3 11 -13 47 -24 79 -10 33 -19 66 -19 75 1 9 12 -18 25 -59 14 -41 24 -84 24 -95z m-2224 7 c1 -17 -2 -29 -6 -26 -10 6 -20 -26 -12 -38 3 -6 2 -8 -4 -5 -5 3 -17 -8 -25 -26 -23 -47 -113 -142 -147 -157 -17 -7 -38 -9 -48 -6 -13 6 -4 18 49 66 48 44 76 80 107 139 23 44 47 82 54 84 22 10 32 1 32 -31z m35 23 c0 -8 -4 -15 -9 -15 -5 0 -11 7 -15 15 -3 9 0 15 9 15 8 0 15 -7 15 -15z m2994 -4 c21 -5 44 -15 50 -21 8 -9 -9 -10 -74 -5 -73 5 -90 3 -122 -13 -36 -19 -37 -19 -27 -1 23 43 91 59 173 40z m-2830 -9 c2 -4 -12 -7 -32 -5 l-37 2 35 -8 c39 -8 76 -26 104 -50 12 -9 16 -11 12 -3 -5 8 -22 22 -39 32 -26 16 -27 19 -9 17 12 -1 22 -5 22 -9 0 -4 5 -8 10 -8 14 0 69 -62 70 -78 0 -7 -4 -11 -9 -7 -5 3 -11 -5 -13 -17 -2 -15 -19 -30 -52 -46 -99 -49 -187 -37 -219 31 -18 38 -23 82 -8 73 5 -4 12 0 14 6 4 8 6 7 6 -4 1 -24 66 -58 109 -57 37 1 37 1 10 11 -16 5 -28 14 -28 20 0 6 -7 7 -16 4 -8 -3 -12 -2 -9 4 3 6 -5 10 -18 10 -28 0 -65 36 -51 50 26 26 137 50 148 32z m3354 -4 c-3 -7 -31 -21 -64 -31 -73 -22 -259 -21 -259 1 0 11 28 14 125 16 69 2 136 8 150 14 34 15 53 15 48 0z"/>
<path d="M775 946 c10 -14 19 -26 22 -26 7 0 -17 39 -28 46 -6 3 -3 -5 6 -20z"/>
<path d="M806 897 c3 -10 9 -15 12 -12 3 3 0 11 -7 18 -10 9 -11 8 -5 -6z"/>
<path d="M830 840 c0 -7 3 -10 7 -7 3 4 3 10 0 14 -4 3 -7 0 -7 -7z"/>
<path d="M841 804 c0 -11 3 -14 6 -6 3 7 2 16 -1 19 -3 4 -6 -2 -5 -13z"/>
<path d="M853 715 c0 -33 2 -45 4 -27 2 18 2 45 0 60 -2 15 -4 0 -4 -33z"/>
<path d="M810 331 c0 -6 4 -13 10 -16 6 -3 7 1 4 9 -7 18 -14 21 -14 7z"/>
</g>
<g id="layer105" fill="#a73922" stroke="none">
<path d="M0 730 l0 -730 2580 0 2580 0 0 730 0 730 -2580 0 -2580 0 0 -730z m1537 600 c1 -19 0 -29 -3 -22 -13 29 -87 -1 -105 -42 -7 -16 -8 -13 -4 13 13 81 108 124 112 51z m468 4 c3 -20 4 -39 1 -42 -3 -3 -6 2 -6 11 0 28 -48 21 -81 -12 -30 -30 -38 -21 -18 22 12 26 55 56 80 57 11 0 19 -12 24 -36z m-410 -207 c24 -86 52 -175 63 -199 30 -66 162 -250 183 -255 21 -6 23 -11 9 -33 -13 -22 -39 6 -125 135 -54 81 -79 130 -95 185 -12 41 -26 83 -31 92 -5 10 -9 26 -9 35 0 10 -12 56 -25 102 -14 47 -25 89 -25 95 0 27 15 -16 55 -157z m464 4 c23 -79 40 -145 38 -148 -6 -5 -21 37 -56 164 -29 104 -37 142 -27 132 2 -2 23 -69 45 -148z m-979 -19 c5 -20 45 -98 87 -172 l78 -135 43 -3 c34 -3 42 -7 42 -23 0 -15 -7 -19 -37 -19 -21 0 -43 4 -49 8 -16 11 -142 236 -162 289 -17 44 -21 48 -51 46 -18 0 -41 -9 -52 -19 -26 -23 -37 -9 -18 24 14 25 83 56 101 45 4 -2 12 -21 18 -41z m-585 -48 l50 -13 -49 4 c-27 3 -62 5 -77 5 -16 0 -29 5 -29 10 0 13 44 11 105 -6z m203 -4 c17 -11 32 -24 32 -30 0 -15 -11 -12 -45 10 -18 12 -48 20 -75 21 -37 1 -41 2 -20 9 42 14 74 11 108 -10z m760 -2 c3 -15 -4 -18 -43 -18 -38 0 -52 -5 -76 -29 -31 -31 -40 -19 -17 22 19 36 41 47 88 44 34 -1 46 -6 48 -19z m355 -9 c25 -16 59 -45 75 -64 34 -38 72 -132 71 -173 0 -21 -4 -15 -16 23 -20 66 -67 129 -122 164 -66 43 -94 47 -134 22 -55 -34 -64 -23 -21 28 35 42 84 42 147 0z m446 12 c79 -41 140 -123 161 -216 15 -67 6 -67 -15 0 -22 69 -87 144 -150 174 -56 26 -75 26 -108 1 -43 -34 -51 -18 -16 31 25 35 71 39 128 10z m294 -28 c107 -352 137 -456 133 -461 -6 -6 -6 -5 -37 98 -12 41 -39 131 -60 199 -22 68 -39 130 -39 138 0 7 -6 16 -14 19 -18 7 -72 -21 -85 -43 -10 -17 -10 -17 -11 0 0 29 19 56 53 77 18 11 35 20 39 20 3 0 13 -21 21 -47z m352 24 c46 -23 84 -65 95 -105 5 -20 8 -37 7 -39 -2 -1 -17 17 -34 41 -54 77 -185 110 -254 63 -18 -12 -39 -34 -46 -47 l-13 -25 0 23 c0 34 27 79 58 97 34 19 144 15 187 -8z m659 -9 c3 -18 40 -143 82 -276 41 -134 74 -251 72 -260 -2 -10 -20 39 -40 108 -52 179 -118 392 -124 402 -8 13 -19 10 -59 -17 -41 -28 -50 -27 -40 4 7 22 70 71 91 71 6 0 14 -15 18 -32z m230 20 c32 -115 67 -194 128 -285 42 -62 68 -111 66 -123 -6 -36 -128 163 -165 269 -18 52 -33 96 -33 98 0 13 -42 -3 -73 -28 -21 -17 -40 -29 -42 -27 -12 11 34 75 65 90 42 21 50 22 54 6z m615 -19 c46 -26 81 -73 81 -110 0 -23 -1 -22 -19 7 -23 39 -71 69 -133 84 -66 17 -114 6 -155 -36 -18 -19 -33 -29 -33 -23 0 25 32 75 58 92 39 25 144 18 201 -14z m410 -2 c48 -32 69 -61 76 -108 l6 -34 -17 30 c-20 35 -35 48 -86 75 -81 44 -165 35 -214 -23 l-27 -32 6 35 c4 22 19 46 39 63 31 27 37 28 105 24 57 -3 81 -10 112 -30z m-4026 -79 c38 -51 64 -108 77 -172 18 -89 -2 -204 -47 -256 -50 -60 -169 -101 -243 -85 l-33 7 56 54 c49 46 95 119 83 131 -2 2 -32 -25 -67 -60 -42 -41 -76 -67 -97 -72 -22 -4 -32 -12 -32 -26 0 -35 -17 -19 -33 32 -10 30 -17 84 -17 130 0 67 5 90 29 142 25 53 72 117 86 117 3 0 -9 -19 -26 -42 -17 -24 -37 -58 -45 -76 -15 -36 -30 -132 -21 -132 3 0 13 26 22 58 21 74 71 156 115 190 35 27 149 91 162 92 4 0 18 -15 31 -32z m1388 -135 c82 -122 113 -162 127 -163 15 0 16 -26 1 -36 -11 -6 -78 61 -79 80 0 4 -13 25 -28 45 -55 71 -93 140 -98 178 l-5 38 15 -33 c8 -18 38 -67 67 -109z m744 35 c78 -71 115 -124 114 -162 0 -30 0 -30 -10 -7 -17 42 -78 110 -147 161 -36 28 -71 50 -77 50 -21 0 -36 25 -23 38 16 16 73 -16 143 -80z m1387 84 c2 -4 17 -16 34 -27 88 -55 184 -167 184 -213 0 -23 -2 -22 -26 14 -37 57 -128 139 -190 171 -51 26 -63 41 -47 56 9 10 41 9 45 -1z m444 -30 c99 -65 185 -169 184 -224 -1 -20 -3 -18 -19 12 -27 49 -136 151 -204 190 -47 26 -55 35 -46 46 16 19 19 19 85 -24z m-3299 -84 c-3 -8 -6 -5 -6 6 -1 11 2 17 5 13 3 -3 4 -12 1 -19z m2653 -9 c0 -14 -11 -25 -37 -35 -21 -9 -50 -28 -65 -42 -32 -29 -34 -26 -13 24 10 25 26 40 57 54 54 25 58 25 58 -1z m195 -9 c-3 -4 12 -30 33 -57 36 -45 60 -63 105 -77 11 -4 17 -13 15 -23 -10 -50 -117 28 -164 119 -30 59 -31 72 -4 58 11 -6 18 -15 15 -20z m-1450 -64 c26 -32 53 -55 73 -61 36 -10 46 -45 12 -45 -42 0 -151 127 -149 174 0 20 1 20 12 2 7 -11 30 -42 52 -70z m1855 59 c14 -37 103 -125 127 -125 23 0 38 -36 19 -43 -20 -8 -69 18 -100 53 -33 38 -76 109 -76 128 0 21 20 13 30 -13z m-3220 -15 c17 0 30 -18 30 -41 0 -13 -42 0 -52 15 -4 6 -7 20 -7 31 0 11 3 14 6 8 2 -7 13 -13 23 -13z m-402 -22 c2 -10 -9 -20 -29 -27 -38 -13 -40 -12 -33 16 9 33 56 41 62 11z m3041 -55 c0 -25 -1 -26 -9 -8 -12 27 -12 35 0 35 6 0 10 -12 9 -27z m-2758 -134 c16 -23 59 -113 59 -125 0 -2 -4 -4 -10 -4 -5 0 -10 4 -10 10 0 5 -15 33 -34 62 -50 79 -78 137 -70 149 3 6 15 -7 26 -28 11 -21 29 -50 39 -64z m148 29 c11 -35 36 -108 55 -162 35 -98 47 -151 26 -114 -13 21 -110 309 -110 326 0 27 10 9 29 -50z m1219 -218 c0 -20 -1 -21 -5 -5 -3 11 -13 47 -24 79 -10 33 -19 66 -18 75 2 25 48 -121 47 -149z m-2188 29 c0 -25 -77 -153 -123 -204 -50 -57 -73 -73 -108 -80 -12 -2 -30 -7 -41 -11 -14 -4 -18 -2 -14 5 4 6 2 11 -4 11 -7 0 10 17 37 39 66 52 98 92 138 172 19 37 40 69 47 72 24 10 68 7 68 -4z m3046 -21 c25 -24 3 -36 -51 -27 -83 13 -110 10 -149 -16 l-36 -24 0 23 c0 23 21 48 50 60 26 10 172 -1 186 -16z m474 13 c0 -5 2 -16 5 -24 10 -24 -129 -51 -239 -45 -101 5 -118 11 -109 33 4 12 30 15 132 16 80 0 139 5 161 14 43 17 50 17 50 6z m-3339 -12 c43 -15 94 -53 116 -86 17 -26 17 -26 -19 -57 -39 -34 -117 -66 -161 -66 -48 0 -92 25 -110 63 -19 39 -23 82 -7 72 6 -3 11 0 11 7 1 7 2 20 3 28 1 15 76 49 112 49 12 1 36 -4 55 -10z"/>
</g>
<g id="layer106" fill="#65a20b" stroke="none">
<path d="M0 730 l0 -730 2580 0 2580 0 0 730 0 730 -2580 0 -2580 0 0 -730z m1537 600 c1 -19 0 -29 -3 -22 -10 22 -46 12 -81 -23 l-36 -36 7 33 c16 79 109 119 113 48z m468 3 c21 -116 110 -393 143 -448 65 -108 146 -214 165 -215 19 0 22 -17 7 -40 -9 -12 -16 -8 -45 25 -53 61 -161 226 -173 265 -27 85 -102 367 -102 384 0 28 -59 13 -87 -22 -18 -20 -23 -23 -23 -10 0 29 20 64 48 81 43 26 59 22 67 -20z m-410 -209 c25 -88 56 -181 70 -209 42 -84 158 -240 182 -243 15 -2 19 -8 16 -23 -10 -37 -40 -19 -95 59 -91 128 -113 165 -126 212 -7 25 -20 59 -28 77 -8 17 -19 53 -24 80 -5 26 -19 80 -30 118 -19 70 -25 103 -15 93 3 -3 26 -77 50 -164z m-515 -12 c5 -20 45 -98 87 -172 l78 -135 47 -3 c39 -3 46 -6 45 -22 -2 -25 -14 -29 -61 -21 -37 6 -41 11 -102 116 -35 61 -75 138 -90 173 -14 34 -32 62 -38 62 -6 0 -29 -9 -51 -20 -46 -23 -55 -19 -34 18 14 25 83 56 101 45 4 -2 12 -21 18 -41z m-585 -48 l50 -13 -55 4 c-30 3 -65 5 -77 5 -13 0 -23 5 -23 10 0 13 44 11 105 -6z m203 -4 c17 -11 32 -24 32 -30 0 -15 -11 -12 -48 10 -18 11 -51 20 -75 21 -36 1 -38 2 -17 9 42 14 74 11 108 -10z m762 -3 c0 -20 -4 -23 -34 -19 -38 4 -96 -21 -96 -43 0 -8 -4 -15 -10 -15 -23 0 -2 63 29 87 9 7 37 13 64 13 42 0 47 -2 47 -23z m353 -8 c64 -42 101 -88 126 -154 20 -54 29 -116 14 -101 -5 4 -8 11 -9 14 0 4 -4 16 -8 27 -4 11 -13 34 -18 50 -16 43 -75 103 -130 131 -57 29 -66 29 -98 4 -50 -39 -66 -20 -24 29 35 42 84 42 147 0z m446 12 c82 -42 149 -138 166 -236 9 -54 -8 -34 -25 29 -17 63 -95 144 -163 170 -46 17 -48 17 -83 -3 -19 -12 -37 -21 -40 -21 -10 0 -2 24 17 51 25 35 71 39 128 10z m306 -68 c79 -253 175 -580 175 -598 -1 -11 -8 0 -16 25 -8 25 -18 52 -21 60 -3 8 -8 24 -10 35 -1 11 -12 45 -22 75 -16 44 -66 209 -127 423 -8 25 -29 21 -69 -14 -27 -24 -35 -27 -35 -14 0 27 19 55 53 75 18 11 35 20 38 20 4 0 19 -39 34 -87z m304 77 c45 -13 96 -48 114 -80 21 -34 32 -100 18 -100 -6 0 -11 5 -11 12 0 25 -54 88 -93 108 -89 47 -185 30 -219 -40 -18 -35 -18 -35 -18 -7 0 39 25 84 58 101 31 18 102 20 151 6z m695 -22 c3 -18 40 -143 82 -276 41 -134 74 -251 72 -260 -2 -10 -20 39 -40 108 -52 179 -118 392 -124 402 -8 13 -19 10 -59 -17 -41 -28 -50 -27 -40 4 7 22 70 71 91 71 6 0 14 -15 18 -32z m230 20 c32 -115 67 -194 128 -285 42 -62 68 -111 66 -123 -6 -36 -128 163 -165 269 -18 52 -33 96 -33 98 0 13 -42 -3 -73 -28 -21 -17 -40 -29 -42 -27 -12 11 34 75 65 90 42 21 50 22 54 6z m615 -19 c46 -26 81 -73 81 -110 0 -23 -1 -22 -19 7 -23 39 -71 69 -133 84 -66 17 -114 6 -155 -36 -18 -19 -33 -29 -33 -23 0 25 32 75 58 92 39 25 144 18 201 -14z m410 -2 c48 -32 69 -61 76 -108 l6 -34 -17 30 c-20 35 -35 48 -86 75 -81 44 -165 35 -214 -23 l-27 -32 6 35 c4 22 19 46 39 63 31 27 37 28 105 24 57 -3 81 -10 112 -30z m-4026 -79 c38 -51 64 -108 77 -172 18 -89 -2 -204 -47 -256 -50 -60 -169 -101 -243 -85 l-33 7 56 54 c49 46 95 119 83 131 -2 2 -32 -25 -67 -60 -42 -41 -76 -67 -97 -72 -22 -4 -32 -12 -32 -26 0 -35 -17 -19 -33 32 -10 30 -17 84 -17 130 0 67 5 90 29 142 25 53 72 117 86 117 3 0 -9 -19 -26 -42 -17 -24 -37 -58 -45 -76 -15 -36 -30 -132 -21 -132 3 0 13 26 22 58 21 74 71 156 115 190 35 27 149 91 162 92 4 0 18 -15 31 -32z m664 15 c-4 -3 -7 0 -7 7 0 7 3 10 7 7 3 -4 3 -10 0 -14z m30 0 c-4 -3 -7 0 -7 7 0 7 3 10 7 7 3 -4 3 -10 0 -14z m1342 -43 c47 -23 144 -111 183 -164 16 -23 28 -52 28 -70 l0 -31 -16 30 c-23 45 -163 173 -216 198 -55 26 -62 45 -20 56 1 1 20 -8 41 -19z m1483 12 c2 -4 17 -16 34 -27 88 -55 184 -167 184 -213 0 -23 -2 -22 -26 14 -37 57 -128 139 -190 171 -51 26 -63 41 -47 56 9 10 41 9 45 -1z m444 -30 c99 -65 185 -169 184 -224 -1 -20 -3 -18 -19 12 -27 49 -136 151 -204 190 -47 26 -55 35 -46 46 16 19 19 19 85 -24z m-1786 -32 c0 -5 -2 -10 -4 -10 -3 0 -8 5 -11 10 -3 6 -1 10 4 10 6 0 11 -4 11 -10z m40 -20 c0 -5 -7 -10 -15 -10 -8 0 -15 5 -15 10 0 6 7 10 15 10 8 0 15 -4 15 -10z m-1521 -70 c17 0 31 -18 31 -41 0 -5 -11 -9 -24 -9 -26 0 -35 18 -41 80 l-4 35 10 -32 c6 -22 16 -33 28 -33z m1324 36 c12 -9 14 -15 6 -18 -21 -7 73 -112 112 -124 22 -8 34 -18 34 -30 0 -59 -111 17 -166 113 -37 64 -30 92 14 59z m1297 -7 c0 -14 -11 -25 -37 -35 -21 -9 -50 -28 -65 -42 -32 -29 -34 -26 -13 24 10 25 26 40 57 54 54 25 58 25 58 -1z m195 -9 c-3 -4 12 -30 33 -57 36 -45 60 -63 105 -77 11 -4 17 -13 15 -23 -10 -50 -117 28 -164 119 -30 59 -31 72 -4 58 11 -6 18 -15 15 -20z m405 -5 c14 -37 103 -125 127 -125 23 0 38 -36 19 -43 -20 -8 -69 18 -100 53 -33 38 -76 109 -76 128 0 21 20 13 30 -13z m-1849 -22 c13 -16 12 -17 -3 -4 -17 13 -22 21 -14 21 2 0 10 -8 17 -17z m-1771 -12 c12 -23 8 -26 -39 -36 -29 -6 -33 -5 -28 10 4 9 7 20 7 25 0 7 16 15 42 19 4 0 12 -8 18 -18z m3039 -58 c0 -25 -1 -26 -9 -8 -12 27 -12 35 0 35 6 0 10 -12 9 -27z m-2798 -32 c-13 -8 -12 -15 5 -47 10 -20 31 -49 47 -65 15 -15 27 -33 27 -39 0 -6 9 -30 20 -52 21 -43 25 -68 13 -68 -11 0 -51 62 -111 171 -11 20 -26 45 -33 56 -16 27 -5 53 23 53 18 0 20 -2 9 -9z m-1104 -28 c-4 -3 -7 0 -7 7 0 7 3 10 7 7 3 -4 3 -10 0 -14z m1292 -45 c11 -35 36 -108 55 -163 20 -55 35 -107 33 -115 -2 -9 -8 -4 -16 15 -6 17 -15 39 -20 50 -5 11 -22 58 -36 105 -15 47 -31 95 -36 108 -9 24 -12 62 -4 62 2 0 13 -28 24 -62z m-132 -15 c-4 -3 -7 0 -7 7 0 7 3 10 7 7 3 -4 3 -10 0 -14z m-837 -174 c0 -25 -77 -153 -123 -204 -50 -57 -73 -73 -108 -80 -12 -2 -30 -7 -41 -11 -14 -4 -18 -2 -14 5 4 6 2 11 -4 11 -7 0 10 17 37 39 66 52 98 92 138 172 19 37 40 69 47 72 24 10 68 7 68 -4z m3046 -21 c25 -24 3 -36 -51 -27 -83 13 -110 10 -149 -16 l-36 -24 0 23 c0 23 21 48 50 60 26 10 172 -1 186 -16z m474 13 c0 -5 2 -16 5 -24 10 -24 -129 -51 -239 -45 -101 5 -118 11 -109 33 4 12 30 15 132 16 80 0 139 5 161 14 43 17 50 17 50 6z m-3339 -12 c43 -15 94 -53 116 -86 17 -26 17 -26 -19 -57 -39 -34 -117 -66 -161 -66 -48 0 -92 25 -110 63 -19 39 -23 82 -7 72 6 -3 11 0 11 7 1 7 2 20 3 28 1 15 76 49 112 49 12 1 36 -4 55 -10z"/>
<path d="M670 710 c0 -7 3 -10 7 -7 3 4 3 10 0 14 -4 3 -7 0 -7 -7z"/>
<path d="M686 675 c-3 -8 -1 -15 3 -15 5 0 11 7 15 15 3 8 1 15 -3 15 -5 0 -11 -7 -15 -15z"/>
<path d="M472 595 c0 -16 2 -22 5 -12 2 9 2 23 0 30 -3 6 -5 -1 -5 -18z"/>
<path d="M630 320 c8 -5 20 -10 25 -10 6 0 3 5 -5 10 -8 5 -19 10 -25 10 -5 0 -3 -5 5 -10z"/>
</g>
<g id="layer107" fill="#db3211" stroke="none">
<path d="M0 730 l0 -730 2580 0 2580 0 0 730 0 730 -2580 0 -2580 0 0 -730z m1537 600 c1 -19 0 -29 -3 -22 -10 22 -46 12 -81 -23 l-36 -36 7 33 c16 79 109 119 113 48z m468 3 c21 -116 110 -393 143 -448 65 -108 146 -214 165 -215 19 0 22 -17 7 -40 -9 -12 -16 -8 -45 25 -53 61 -161 226 -173 265 -27 85 -102 367 -102 384 0 28 -59 13 -87 -22 -18 -20 -23 -23 -23 -10 0 29 20 64 48 81 43 26 59 22 67 -20z m-410 -209 c25 -88 56 -181 70 -209 42 -84 158 -240 182 -243 15 -2 19 -8 16 -23 -10 -37 -40 -19 -95 59 -91 128 -113 165 -126 212 -7 25 -20 59 -28 77 -8 17 -19 53 -24 80 -5 26 -19 80 -30 118 -19 70 -25 103 -15 93 3 -3 26 -77 50 -164z m-515 -12 c5 -20 45 -98 87 -172 l78 -135 47 -3 c39 -3 46 -6 45 -22 -2 -25 -14 -29 -61 -21 -37 6 -41 11 -102 116 -35 61 -75 138 -90 173 -14 34 -32 62 -38 62 -6 0 -29 -9 -51 -20 -46 -23 -55 -19 -34 18 14 25 83 56 101 45 4 -2 12 -21 18 -41z m-585 -48 l50 -13 -55 4 c-30 3 -65 5 -77 5 -13 0 -23 5 -23 10 0 13 44 11 105 -6z m203 -4 c17 -11 32 -24 32 -30 0 -15 -11 -12 -48 10 -18 11 -51 20 -75 21 -36 1 -38 2 -17 9 42 14 74 11 108 -10z m762 -3 c0 -20 -4 -23 -34 -19 -38 4 -96 -21 -96 -43 0 -8 -4 -15 -10 -15 -23 0 -2 63 29 87 9 7 37 13 64 13 42 0 47 -2 47 -23z m353 -8 c64 -42 101 -88 126 -154 20 -54 29 -116 14 -101 -5 4 -8 11 -9 14 0 4 -4 16 -8 27 -4 11 -13 34 -18 50 -16 43 -75 103 -130 131 -57 29 -66 29 -98 4 -50 -39 -66 -20 -24 29 35 42 84 42 147 0z m446 12 c82 -42 149 -138 166 -236 9 -54 -8 -34 -25 29 -17 63 -95 144 -163 170 -46 17 -48 17 -83 -3 -19 -12 -37 -21 -40 -21 -10 0 -2 24 17 51 25 35 71 39 128 10z m306 -68 c79 -253 175 -580 175 -598 -1 -11 -8 0 -16 25 -8 25 -18 52 -21 60 -3 8 -8 24 -10 35 -1 11 -12 45 -22 75 -16 44 -66 209 -127 423 -8 25 -29 21 -69 -14 -27 -24 -35 -27 -35 -14 0 27 19 55 53 75 18 11 35 20 38 20 4 0 19 -39 34 -87z m304 77 c45 -13 96 -48 114 -80 21 -34 32 -100 18 -100 -6 0 -11 5 -11 12 0 25 -54 88 -93 108 -89 47 -185 30 -219 -40 -18 -35 -18 -35 -18 -7 0 39 25 84 58 101 31 18 102 20 151 6z m750 -197 c34 -115 72 -237 83 -273 12 -36 24 -94 27 -130 l6 -65 114 -3 c79 -2 129 2 165 12 27 8 52 13 55 11 9 -10 12 -103 4 -135 -13 -49 -61 -80 -126 -80 -27 0 -100 11 -161 24 -213 47 -297 54 -401 35 -18 -4 -20 2 -23 57 -4 88 11 99 134 99 66 0 94 3 94 12 0 14 -69 245 -106 354 -27 83 -40 172 -30 213 6 24 68 76 91 76 6 0 39 -93 74 -207z m204 106 c22 -64 51 -123 90 -182 56 -84 81 -108 70 -68 -11 42 36 94 105 115 19 6 22 4 22 -22 0 -15 7 -50 16 -76 29 -85 5 -154 -68 -192 -47 -24 -65 -18 -106 38 -36 51 -37 52 -40 25 -4 -33 -33 -54 -87 -62 l-41 -7 -58 186 c-63 201 -68 254 -30 298 20 22 73 49 87 45 5 -2 23 -45 40 -98z m590 68 c31 -18 52 -40 66 -70 20 -42 29 -117 14 -117 -5 0 -24 14 -43 30 -41 36 -115 73 -132 68 -7 -3 8 -18 33 -35 70 -49 150 -133 169 -178 13 -29 16 -56 13 -98 -5 -52 -9 -61 -36 -78 -48 -28 -82 -32 -135 -15 -120 41 -212 195 -212 357 0 89 13 124 59 153 40 26 146 17 204 -17z m407 -1 c55 -36 80 -80 80 -138 0 -27 -3 -48 -6 -48 -4 0 -22 13 -40 30 -43 37 -110 72 -132 68 -11 -2 1 -14 35 -36 58 -37 143 -123 167 -170 9 -18 16 -55 16 -91 0 -68 -16 -92 -77 -112 -151 -50 -335 194 -308 408 6 48 13 63 43 91 35 34 37 34 109 30 57 -4 81 -11 113 -32z m-4027 -78 c38 -51 64 -108 77 -172 18 -89 -2 -204 -47 -256 -50 -60 -169 -101 -243 -85 l-32 7 37 36 c33 32 95 126 95 144 0 3 -28 -22 -63 -57 -40 -40 -74 -65 -95 -70 -22 -4 -32 -12 -32 -26 0 -35 -17 -19 -33 32 -10 30 -17 84 -17 130 0 67 5 90 29 142 25 53 72 117 86 117 3 0 -9 -19 -26 -42 -41 -57 -57 -99 -63 -161 l-5 -52 9 43 c24 111 98 202 216 265 38 20 72 37 76 37 4 0 18 -15 31 -32z m664 15 c-4 -3 -7 0 -7 7 0 7 3 10 7 7 3 -4 3 -10 0 -14z m30 0 c-4 -3 -7 0 -7 7 0 7 3 10 7 7 3 -4 3 -10 0 -14z m1342 -43 c47 -23 144 -111 183 -164 16 -23 28 -52 28 -70 l0 -31 -16 30 c-23 45 -163 173 -216 198 -55 26 -62 45 -20 56 1 1 20 -8 41 -19z m141 -50 c0 -5 -2 -10 -4 -10 -3 0 -8 5 -11 10 -3 6 -1 10 4 10 6 0 11 -4 11 -10z m40 -20 c0 -5 -7 -10 -15 -10 -8 0 -15 5 -15 10 0 6 7 10 15 10 8 0 15 -4 15 -10z m-1521 -70 c17 0 31 -18 31 -41 0 -5 -11 -9 -24 -9 -26 0 -35 18 -41 80 l-4 35 10 -32 c6 -22 16 -33 28 -33z m1324 36 c12 -9 14 -15 6 -18 -21 -7 73 -112 112 -124 22 -8 34 -18 34 -30 0 -59 -111 17 -166 113 -37 64 -30 92 14 59z m48 -43 c13 -16 12 -17 -3 -4 -17 13 -22 21 -14 21 2 0 10 -8 17 -17z m-1771 -12 c12 -23 8 -26 -39 -36 -29 -6 -33 -5 -28 10 4 9 7 20 7 25 0 7 16 15 42 19 4 0 12 -8 18 -18z m241 -90 c-13 -8 -12 -15 5 -47 10 -20 31 -49 47 -65 15 -15 27 -33 27 -39 0 -6 9 -30 20 -52 21 -43 25 -68 13 -68 -11 0 -51 62 -111 171 -11 20 -26 45 -33 56 -16 27 -5 53 23 53 18 0 20 -2 9 -9z m-1104 -28 c-4 -3 -7 0 -7 7 0 7 3 10 7 7 3 -4 3 -10 0 -14z m1292 -45 c11 -35 36 -108 55 -163 20 -55 35 -107 33 -115 -2 -9 -8 -4 -16 15 -6 17 -15 39 -20 50 -5 11 -22 58 -36 105 -15 47 -31 95 -36 108 -9 24 -12 62 -4 62 2 0 13 -28 24 -62z m-132 -15 c-4 -3 -7 0 -7 7 0 7 3 10 7 7 3 -4 3 -10 0 -14z m-837 -174 c0 -25 -77 -153 -123 -204 -70 -79 -156 -119 -171 -80 -6 16 6 29 68 78 20 16 58 63 86 105 27 43 56 85 65 95 16 19 75 24 75 6z m181 -20 c43 -15 94 -53 116 -86 17 -26 17 -26 -19 -57 -39 -34 -117 -66 -161 -66 -48 0 -92 25 -110 63 -19 39 -23 82 -7 72 6 -3 11 0 11 7 1 7 2 20 3 28 1 15 76 49 112 49 12 1 36 -4 55 -10z"/>
</g>
<g id="layer108" fill="#cc4a2f" stroke="none">
<path d="M0 730 l0 -730 2580 0 2580 0 0 730 0 730 -2580 0 -2580 0 0 -730z m1561 520 c38 -147 79 -280 86 -280 3 0 2 11 -1 24 -4 18 1 33 20 55 35 42 84 42 147 0 99 -65 145 -154 154 -295 8 -123 -24 -197 -93 -210 -39 -7 -89 10 -79 26 4 6 1 9 -6 8 -7 -2 -23 12 -35 31 l-24 33 -9 -24 c-12 -31 -37 -52 -52 -42 -7 4 -9 3 -5 -4 8 -13 -33 -37 -44 -25 -14 14 -118 376 -118 411 -1 35 -36 90 -47 72 -3 -5 -3 -20 0 -31 4 -12 3 -19 -2 -16 -5 3 -9 -24 -9 -63 1 -38 4 -62 8 -52 5 13 7 10 7 -10 1 -40 11 -58 31 -58 10 0 21 -7 24 -16 10 -26 7 -79 -5 -91 -9 -9 2 -53 45 -176 31 -93 56 -181 56 -203 -1 -36 -4 -41 -54 -71 -33 -20 -67 -33 -88 -33 -31 0 -36 6 -101 110 -38 62 -65 115 -61 122 4 6 3 8 -3 5 -14 -9 -56 61 -47 75 4 6 2 8 -4 4 -12 -7 -86 109 -78 123 3 4 -16 8 -43 7 -27 0 -47 -4 -45 -7 2 -4 -6 -15 -17 -25 -26 -23 -35 -11 -44 61 -8 64 1 102 25 108 12 3 18 13 17 30 -1 14 -5 23 -9 21 -10 -7 -90 145 -82 158 4 6 3 8 -4 4 -22 -13 -29 77 -8 109 8 12 33 27 56 33 40 10 42 9 52 -16 25 -62 71 -153 121 -237 50 -86 54 -90 90 -93 35 -3 37 -2 37 27 0 16 3 38 6 48 5 15 4 15 -5 3 -8 -11 -11 3 -11 58 0 107 23 141 98 142 23 0 42 2 42 4 0 2 -7 33 -16 67 -27 107 -8 185 51 210 39 16 46 6 76 -111z m457 33 c42 -165 85 -303 94 -303 5 0 6 9 3 20 -4 13 2 31 15 50 66 93 253 -38 289 -202 30 -137 20 -226 -34 -276 -49 -45 -92 -44 -140 4 -20 20 -34 42 -32 48 3 7 -1 13 -9 13 -8 0 -14 -4 -14 -9 0 -5 -4 -7 -9 -4 -5 4 -7 -3 -4 -13 4 -14 -6 -25 -39 -45 -25 -14 -47 -26 -50 -26 -10 0 -49 142 -44 157 4 9 2 11 -6 7 -7 -5 -9 0 -6 14 4 12 3 20 -2 17 -10 -6 -22 37 -26 90 -1 22 -7 41 -13 43 -6 2 -8 8 -5 13 3 6 0 16 -6 24 -6 8 -8 20 -4 26 4 7 3 9 -3 6 -6 -4 -25 45 -46 117 -53 177 -50 261 11 299 48 30 55 24 80 -70z m-1543 -213 c27 -7 64 -6 112 1 65 10 75 10 104 -7 18 -11 34 -24 35 -29 2 -6 -24 -26 -57 -45 -114 -65 -193 -175 -203 -281 -5 -53 -5 -53 4 -11 24 112 99 203 219 266 85 44 89 43 139 -52 66 -125 64 -291 -5 -372 -50 -60 -169 -101 -243 -85 l-32 7 37 36 c33 32 95 126 95 144 0 3 -28 -22 -63 -57 -40 -40 -74 -65 -95 -70 -22 -4 -32 -12 -32 -25 0 -37 -106 -51 -181 -25 -50 18 -112 73 -104 93 2 7 1 11 -4 8 -19 -12 -36 61 -36 149 0 72 5 100 24 142 13 30 28 50 34 46 6 -3 7 -1 3 6 -9 14 60 111 79 111 3 0 3 -6 -1 -12 -4 -8 -3 -10 2 -5 5 5 9 14 9 20 0 15 73 55 100 56 11 0 38 -4 60 -9z m2078 -37 c8 -27 52 -169 97 -318 45 -148 87 -292 92 -318 10 -54 -2 -133 -20 -130 -6 2 -9 -4 -6 -11 6 -16 -50 -50 -70 -43 -15 6 -50 152 -40 168 5 8 3 9 -6 4 -10 -6 -12 -1 -8 18 3 16 1 24 -5 20 -6 -4 -8 2 -5 15 4 12 3 20 -1 17 -11 -6 -64 183 -55 197 4 6 3 8 -3 5 -13 -8 -57 138 -47 154 4 7 3 9 -3 6 -14 -9 -26 38 -17 65 4 14 2 18 -5 14 -15 -9 -15 98 0 125 9 19 65 59 81 59 3 0 13 -21 21 -47z m316 37 c45 -13 96 -48 114 -80 21 -34 32 -100 18 -100 -6 0 -11 6 -11 14 0 8 -9 24 -21 37 l-20 24 16 -27 c12 -20 14 -31 6 -45 -9 -15 -16 -13 -8 2 4 9 -126 66 -142 62 -11 -2 -6 -8 15 -20 42 -22 140 -112 176 -161 24 -34 28 -48 28 -108 0 -43 -4 -67 -10 -63 -5 3 -7 0 -4 -8 3 -10 -9 -22 -39 -36 -51 -25 -75 -26 -122 -7 -46 20 -137 106 -131 123 3 8 2 11 -4 8 -12 -8 -43 53 -36 71 3 8 2 12 -4 9 -15 -9 -30 64 -30 148 0 88 15 128 58 151 31 18 102 20 151 6z m750 -197 c34 -115 72 -237 83 -273 12 -36 24 -94 27 -130 l6 -65 114 -3 c79 -2 129 2 165 12 27 8 52 13 55 11 9 -10 12 -103 4 -135 -13 -49 -61 -80 -126 -80 -27 0 -100 11 -161 24 -213 47 -297 54 -401 35 -18 -4 -20 2 -23 57 -4 88 11 99 134 99 66 0 94 3 94 12 0 14 -69 245 -106 354 -27 83 -40 172 -30 213 6 24 68 76 91 76 6 0 39 -93 74 -207z m204 106 c22 -64 51 -123 90 -182 56 -84 81 -108 70 -68 -11 42 36 94 105 115 19 6 22 4 22 -22 0 -15 7 -50 16 -76 29 -85 5 -154 -68 -192 -47 -24 -65 -18 -106 38 -36 51 -37 52 -40 25 -4 -33 -33 -54 -87 -62 l-41 -7 -58 186 c-63 201 -68 254 -30 298 20 22 73 49 87 45 5 -2 23 -45 40 -98z m590 68 c31 -18 52 -40 66 -70 20 -42 29 -117 14 -117 -5 0 -24 14 -43 30 -41 36 -115 73 -132 68 -7 -3 8 -18 33 -35 70 -49 150 -133 169 -178 13 -29 16 -56 13 -98 -5 -52 -9 -61 -36 -78 -48 -28 -82 -32 -135 -15 -120 41 -212 195 -212 357 0 89 13 124 59 153 40 26 146 17 204 -17z m407 -1 c55 -36 80 -80 80 -138 0 -27 -3 -48 -6 -48 -4 0 -22 13 -40 30 -43 37 -110 72 -132 68 -11 -2 1 -14 35 -36 58 -37 143 -123 167 -170 9 -18 16 -55 16 -91 0 -68 -16 -92 -77 -112 -151 -50 -335 194 -308 408 6 48 13 63 43 91 35 34 37 34 109 30 57 -4 81 -11 113 -32z m-3333 -63 c-4 -3 -7 0 -7 7 0 7 3 10 7 7 3 -4 3 -10 0 -14z m1523 -113 c0 -5 -7 -10 -15 -10 -8 0 -15 5 -15 10 0 6 7 10 15 10 8 0 15 -4 15 -10z m-2460 -441 c0 -25 -77 -153 -123 -204 -70 -79 -156 -119 -171 -80 -6 16 6 29 68 78 20 16 58 63 86 105 27 43 56 85 65 95 16 19 75 24 75 6z m181 -20 c43 -15 94 -53 116 -86 17 -26 17 -26 -19 -57 -39 -34 -117 -66 -161 -66 -48 0 -92 25 -110 63 -19 39 -23 82 -7 72 6 -3 11 0 11 7 1 7 2 20 3 28 1 15 76 49 112 49 12 1 36 -4 55 -10z"/>
<path d="M1580 1060 c0 -7 3 -10 7 -7 3 4 3 10 0 14 -4 3 -7 0 -7 -7z"/>
<path d="M1728 1023 c7 -3 16 -2 19 1 4 3 -2 6 -13 5 -11 0 -14 -3 -6 -6z"/>
<path d="M1321 964 c0 -11 3 -14 6 -6 3 7 2 16 -1 19 -3 4 -6 -2 -5 -13z"/>
<path d="M1650 946 c0 -25 172 -276 189 -276 5 0 11 18 13 39 2 22 1 38 -2 36 -10 -6 -32 64 -24 76 5 8 3 9 -6 4 -10 -6 -12 -4 -7 8 4 10 2 16 -5 14 -6 -1 -13 4 -16 12 -3 9 0 11 9 6 8 -5 12 -6 9 -2 -3 3 -9 6 -15 8 -5 1 -27 17 -49 35 -46 39 -96 60 -96 40z"/>
<path d="M1911 880 c14 -31 19 -36 19 -24 0 6 -7 19 -16 30 -14 18 -14 18 -3 -6z"/>
<path d="M1455 760 c3 -5 8 -10 11 -10 3 0 2 5 -1 10 -3 6 -8 10 -11 10 -3 0 -2 -4 1 -10z"/>
<path d="M1084 748 c-4 -7 -3 -8 4 -4 12 7 16 16 8 16 -3 0 -8 -5 -12 -12z"/>
<path d="M1950 750 c0 -7 3 -10 7 -7 3 4 3 10 0 14 -4 3 -7 0 -7 -7z"/>
<path d="M1313 743 c4 -3 10 -3 14 0 3 4 0 7 -7 7 -7 0 -10 -3 -7 -7z"/>
<path d="M1294 698 c-4 -7 -3 -8 4 -4 12 7 16 16 8 16 -3 0 -8 -5 -12 -12z"/>
<path d="M1330 700 c10 -6 11 -10 3 -10 -7 0 -13 -4 -13 -10 0 -17 60 -108 75 -114 19 -7 19 8 0 28 -9 8 -14 19 -13 23 5 21 -16 74 -32 83 -24 13 -40 13 -20 0z"/>
<path d="M1481 684 c0 -11 3 -14 6 -6 3 7 2 16 -1 19 -3 4 -6 -2 -5 -13z"/>
<path d="M1280 670 c0 -7 3 -10 7 -7 3 4 3 10 0 14 -4 3 -7 0 -7 -7z"/>
<path d="M1871 654 c0 -11 3 -14 6 -6 3 7 2 16 -1 19 -3 4 -6 -2 -5 -13z"/>
<path d="M1299 635 c17 -33 31 -51 31 -40 0 6 -10 21 -21 35 -13 17 -17 18 -10 5z"/>
<path d="M1840 620 c-9 -6 -10 -10 -3 -10 6 0 15 5 18 10 8 12 4 12 -15 0z"/>
<path d="M1340 560 c6 -11 13 -20 16 -20 2 0 0 9 -6 20 -6 11 -13 20 -16 20 -2 0 0 -9 6 -20z"/>
<path d="M1410 535 c0 -5 5 -17 10 -25 5 -8 10 -10 10 -5 0 6 -5 17 -10 25 -5 8 -10 11 -10 5z"/>
<path d="M1370 510 c6 -11 13 -20 16 -20 2 0 0 9 -6 20 -6 11 -13 20 -16 20 -2 0 0 -9 6 -20z"/>
<path d="M1430 481 c0 -6 4 -13 10 -16 6 -3 7 1 4 9 -7 18 -14 21 -14 7z"/>
<path d="M1417 433 c22 -40 43 -43 42 -5 -1 16 -3 20 -6 10 -6 -23 -11 -23 -34 5 -19 22 -19 22 -2 -10z"/>
<path d="M2080 960 c0 -7 3 -10 7 -7 3 4 3 10 0 14 -4 3 -7 0 -7 -7z"/>
<path d="M2122 957 c-9 -10 -2 -28 26 -73 63 -103 146 -214 160 -214 24 0 -10 124 -50 182 -11 16 -16 33 -12 39 4 7 3 9 -2 6 -6 -3 -29 8 -53 24 -24 16 -48 29 -53 29 -5 0 -6 5 -3 10 9 14 -1 12 -13 -3z"/>
<path d="M2310 620 c-9 -6 -10 -10 -3 -10 6 0 15 5 18 10 8 12 4 12 -15 0z"/>
<path d="M333 1033 c4 -3 10 -3 14 0 3 4 0 7 -7 7 -7 0 -10 -3 -7 -7z"/>
<path d="M201 863 c-1 -6 -4 -20 -7 -30 -5 -17 -5 -17 6 0 6 10 9 23 6 30 -3 9 -5 9 -5 0z"/>
<path d="M207 800 c-4 -14 -7 -56 -7 -95 0 -75 21 -136 58 -168 11 -11 18 -25 16 -32 -5 -12 54 -41 63 -31 2 2 -10 8 -26 14 -17 6 -31 14 -31 18 0 3 6 4 13 1 44 -16 54 -17 54 -2 0 8 -7 14 -16 13 -9 -2 -16 3 -16 10 0 6 -3 11 -6 10 -22 -9 -78 74 -72 105 3 9 0 17 -5 17 -6 0 -10 10 -11 23 0 12 -3 40 -6 62 -4 29 -3 35 4 20 11 -24 12 -2 2 35 l-7 25 -7 -25z"/>
<path d="M225 530 c3 -5 8 -10 11 -10 3 0 2 5 -1 10 -3 6 -8 10 -11 10 -3 0 -2 -4 1 -10z"/>
<path d="M2720 380 c0 -7 3 -10 7 -7 3 4 3 10 0 14 -4 3 -7 0 -7 -7z"/>
<path d="M2927 979 c7 -7 15 -10 18 -7 3 3 -2 9 -12 12 -14 6 -15 5 -6 -5z"/>
<path d="M2753 945 c-3 -9 -3 -18 -1 -21 3 -3 8 4 11 16 6 23 -1 27 -10 5z"/>
<path d="M2670 940 c0 -7 3 -10 7 -7 3 4 3 10 0 14 -4 3 -7 0 -7 -7z"/>
<path d="M2808 842 c12 -12 17 -22 11 -24 -15 -5 66 -106 97 -120 24 -11 47 -3 29 10 -20 14 -60 65 -45 57 10 -5 8 -1 -4 13 -20 24 -42 30 -30 10 5 -9 2 -9 -9 1 -19 15 -23 26 -5 15 26 -16 -5 17 -35 36 -28 19 -29 19 -9 2z"/>
<path d="M2764 838 c-4 -7 -3 -8 4 -4 12 7 16 16 8 16 -3 0 -8 -5 -12 -12z"/>
<path d="M2899 827 c26 -28 31 -32 31 -19 0 4 -13 16 -28 26 l-27 19 24 -26z"/>
<path d="M2770 811 c0 -6 4 -13 10 -16 6 -3 7 1 4 9 -7 18 -14 21 -14 7z"/>
<path d="M2950 775 c7 -8 17 -15 22 -15 6 0 5 7 -2 15 -7 8 -17 15 -22 15 -6 0 -5 -7 2 -15z"/>
<path d="M2803 754 c9 -17 23 -37 33 -44 9 -8 4 3 -10 25 -35 51 -42 57 -23 19z"/>
<path d="M2765 640 c10 -11 20 -20 23 -20 3 0 -3 9 -13 20 -10 11 -20 20 -23 20 -3 0 3 -9 13 -20z"/>
<path d="M2910 640 c8 -5 24 -10 34 -10 26 0 18 6 -19 14 -22 5 -26 4 -15 -4z"/>
<path d="M2908 553 c7 -3 16 -2 19 1 4 3 -2 6 -13 5 -11 0 -14 -3 -6 -6z"/>
</g>
<g id="layer109" fill="#fcfdfd" stroke="none">
<path d="M0 730 l0 -730 2580 0 2580 0 0 730 0 730 -2580 0 -2580 0 0 -730z m1561 520 c38 -147 79 -280 86 -280 3 0 2 11 -1 24 -4 18 1 33 20 55 35 42 84 42 147 0 99 -65 145 -154 154 -296 9 -130 -25 -199 -104 -210 -43 -6 -82 18 -114 70 l-18 31 -10 -27 c-11 -28 -84 -83 -99 -73 -5 3 -40 109 -77 236 -38 126 -72 230 -76 230 -14 0 -21 -69 -14 -127 9 -72 13 -83 35 -83 10 0 21 -7 24 -16 10 -26 7 -79 -5 -91 -9 -9 2 -53 45 -176 31 -93 56 -181 56 -203 -1 -36 -4 -41 -54 -71 -33 -20 -67 -33 -88 -33 -32 0 -36 5 -173 226 -138 223 -140 226 -169 220 -17 -4 -41 -16 -54 -28 -29 -28 -37 -17 -47 57 -7 60 1 105 20 105 29 0 23 23 -32 121 -83 150 -81 214 7 237 40 10 42 9 52 -16 25 -62 71 -153 121 -237 50 -86 54 -90 90 -93 l37 -3 -6 94 c-4 52 -4 106 0 121 10 42 44 66 93 66 24 0 43 2 43 4 0 2 -7 33 -16 67 -27 107 -8 185 51 210 39 16 46 6 76 -111z m457 33 c42 -165 85 -303 94 -303 5 0 6 9 3 20 -4 13 2 31 15 50 66 93 253 -38 289 -202 30 -137 20 -226 -34 -276 -57 -53 -120 -40 -167 36 l-22 36 -12 -30 c-11 -26 -89 -83 -99 -72 -4 4 -72 221 -144 464 -68 227 -68 306 -3 347 48 30 55 24 80 -70z m-1543 -213 c27 -7 64 -6 112 1 65 10 75 10 104 -7 18 -11 34 -24 35 -29 2 -6 -24 -26 -57 -45 -114 -65 -193 -175 -203 -281 -5 -53 -5 -53 4 -11 24 112 99 203 219 266 85 44 89 43 139 -52 66 -125 64 -291 -5 -372 -50 -60 -169 -101 -243 -85 l-32 7 37 36 c33 32 95 126 95 144 0 3 -28 -22 -63 -57 -40 -40 -74 -65 -95 -70 -22 -4 -32 -12 -32 -25 0 -13 -11 -22 -37 -29 -110 -31 -212 13 -266 114 -18 33 -22 57 -22 136 0 90 2 99 37 170 40 82 100 150 157 178 42 22 62 24 116 11z m2078 -37 c8 -27 52 -169 97 -318 45 -148 87 -290 92 -315 10 -51 2 -115 -19 -146 -17 -26 -71 -51 -82 -38 -5 5 -18 50 -30 99 -12 50 -54 194 -93 320 -73 238 -92 341 -69 384 11 20 66 61 83 61 3 0 13 -21 21 -47z m316 37 c82 -23 128 -77 138 -160 7 -59 -8 -66 -48 -24 -30 32 -115 76 -137 72 -13 -3 -9 -8 14 -21 42 -22 140 -112 176 -161 24 -34 28 -48 28 -107 0 -78 -16 -101 -82 -121 -55 -16 -106 2 -172 63 -82 75 -119 156 -124 277 -5 107 6 145 52 173 34 21 101 25 155 9z m750 -197 c34 -115 72 -237 83 -273 12 -36 24 -94 27 -130 l6 -65 114 -3 c79 -2 129 2 165 12 27 8 52 13 55 11 9 -10 12 -103 4 -135 -13 -49 -61 -80 -126 -80 -27 0 -100 11 -161 24 -213 47 -297 54 -401 35 -18 -4 -20 2 -23 57 -4 88 11 99 134 99 66 0 94 3 94 12 0 14 -69 245 -106 354 -27 83 -40 172 -30 213 6 24 68 76 91 76 6 0 39 -93 74 -207z m204 106 c22 -64 51 -123 90 -182 56 -84 81 -108 70 -68 -11 42 36 94 105 115 19 6 22 4 22 -22 0 -15 7 -50 16 -76 29 -85 5 -154 -68 -192 -47 -24 -65 -18 -106 38 -36 51 -37 52 -40 25 -4 -33 -33 -54 -87 -62 l-41 -7 -58 186 c-63 201 -68 254 -30 298 20 22 73 49 87 45 5 -2 23 -45 40 -98z m590 68 c31 -18 52 -40 66 -70 20 -42 29 -117 14 -117 -5 0 -24 14 -43 30 -41 36 -115 73 -132 68 -7 -3 8 -18 33 -35 70 -49 150 -133 169 -178 13 -29 16 -56 13 -98 -5 -52 -9 -61 -36 -78 -48 -28 -82 -32 -135 -15 -120 41 -212 195 -212 357 0 89 13 124 59 153 40 26 146 17 204 -17z m407 -1 c55 -36 80 -80 80 -138 0 -27 -3 -48 -6 -48 -4 0 -22 13 -40 30 -43 37 -110 72 -132 68 -11 -2 1 -14 35 -36 58 -37 143 -123 167 -170 9 -18 16 -55 16 -91 0 -68 -16 -92 -77 -112 -151 -50 -335 194 -308 408 6 48 13 63 43 91 35 34 37 34 109 30 57 -4 81 -11 113 -32z m-4270 -617 c0 -25 -77 -153 -123 -204 -70 -79 -156 -119 -171 -80 -6 16 6 29 68 78 20 16 58 63 86 105 27 43 56 85 65 95 16 19 75 24 75 6z m181 -20 c43 -15 94 -53 116 -86 17 -26 17 -26 -19 -57 -39 -34 -117 -66 -161 -66 -48 0 -92 25 -110 63 -19 39 -23 82 -7 72 6 -3 11 0 11 7 1 7 2 20 3 28 1 15 76 49 112 49 12 1 36 -4 55 -10z"/>
<path d="M1650 946 c0 -26 172 -276 190 -276 17 0 11 56 -12 117 -14 37 -39 75 -68 104 -48 48 -110 79 -110 55z"/>
<path d="M1320 680 c0 -10 59 -110 65 -110 5 0 -12 57 -26 93 -11 26 -39 38 -39 17z"/>
<path d="M2116 952 c-11 -18 169 -282 192 -282 9 0 11 10 6 38 -14 77 -54 158 -98 195 -33 28 -94 58 -100 49z"/>
<path d="M206 798 c-13 -49 -6 -163 13 -203 17 -38 72 -95 91 -95 5 0 17 -3 27 -7 10 -3 -4 13 -30 37 -72 64 -92 108 -92 208 0 45 0 82 -1 82 -1 0 -4 -10 -8 -22z"/>
<path d="M2820 800 c31 -58 130 -136 130 -103 0 10 -121 123 -132 123 -5 0 -4 -9 2 -20z"/>
<path d="M4309 801 c18 -32 99 -111 116 -111 26 0 17 15 -44 73 -61 58 -91 74 -72 38z"/>
<path d="M4710 810 c0 -16 107 -120 124 -120 15 0 15 2 1 24 -15 23 -108 106 -119 106 -3 0 -6 -4 -6 -10z"/>
</g>


</svg>