<!DOCTYPE svg PUBLIC "-//W3C//DTD SVG 20010904//EN" "http://www.w3.org/TR/2001/REC-SVG-20010904/DTD/svg10.dtd">
<svg version="1.0" xmlns="http://www.w3.org/2000/svg" width="95px" height="112px" viewBox="0 0 950 1120" preserveAspectRatio="xMidYMid meet">
<g id="layer101" fill="#162f0a" stroke="none">
<path d="M0 560 l0 -560 475 0 475 0 0 560 0 560 -475 0 -475 0 0 -560z"/>
</g>
<g id="layer102" fill="#222012" stroke="none">
<path d="M0 560 l0 -560 475 0 475 0 0 560 0 560 -475 0 -475 0 0 -560z m790 325 c17 -25 29 -45 26 -45 -3 0 -19 20 -36 45 -17 25 -29 45 -26 45 3 0 19 -20 36 -45z m49 -100 c0 -5 -4 -3 -9 5 -5 8 -9 22 -9 30 0 16 17 -16 18 -35z m8 -32 c-4 -3 -7 0 -7 7 0 7 3 10 7 7 3 -4 3 -10 0 -14z m10 -60 c-3 -10 -5 -2 -5 17 0 19 2 27 5 18 2 -10 2 -26 0 -35z m-154 -28 c-3 -9 -8 -14 -10 -11 -3 3 -2 9 2 15 9 16 15 13 8 -4z m164 -12 c-4 -3 -7 0 -7 7 0 7 3 10 7 7 3 -4 3 -10 0 -14z m-10 -65 c-3 -7 -5 -2 -5 12 0 14 2 19 5 13 2 -7 2 -19 0 -25z m-177 18 c0 -3 -5 -8 -12 -12 -7 -4 -8 -3 -4 4 7 12 16 16 16 8z m160 -93 c-11 -17 -11 -17 -6 0 3 10 7 28 7 40 2 22 2 22 6 0 2 -12 -1 -30 -7 -40z m-305 -143 c3 -5 4 -10 1 -10 -3 0 -8 5 -11 10 -3 6 -4 10 -1 10 3 0 8 -4 11 -10z m-5 -33 c0 -7 -7 -22 -15 -33 -13 -17 -14 -16 -4 14 11 33 19 41 19 19z m177 6 c-4 -3 -10 -3 -14 0 -3 4 0 7 7 7 7 0 10 -3 7 -7z m79 -35 c24 -17 44 -36 44 -42 0 -5 -12 2 -27 16 -16 14 -41 33 -58 41 -16 9 -24 16 -17 17 8 0 34 -14 58 -32z m-301 -58 c-9 -16 -18 -30 -21 -30 -2 0 2 14 11 30 9 17 18 30 21 30 2 0 -2 -13 -11 -30z m125 10 c14 -11 31 -20 39 -20 8 0 11 -3 8 -7 -8 -8 -87 27 -87 39 0 13 13 9 40 -12z m227 -32 c-3 -8 -6 -5 -6 6 -1 11 2 17 5 13 3 -3 4 -12 1 -19z"/>
</g>
<g id="layer103" fill="#31581a" stroke="none">
<path d="M0 560 l0 -560 475 0 475 0 0 560 0 560 -475 0 -475 0 0 -560z m437 453 c-4 -3 -10 -3 -14 0 -3 4 0 7 7 7 7 0 10 -3 7 -7z m246 -8 c40 -16 53 -30 37 -40 -5 -3 -10 -1 -10 5 0 6 -19 19 -42 30 -51 22 -37 27 15 5z m131 -132 c50 -80 71 -180 56 -264 -6 -35 -18 -75 -26 -89 -11 -19 -14 -20 -10 -5 37 160 24 259 -52 368 -23 33 -29 47 -18 47 8 0 30 -26 50 -57z m-354 -226 c-9 -58 2 -163 20 -198 12 -22 12 -29 1 -29 -12 0 -41 108 -41 153 0 39 19 141 26 135 2 -3 -1 -30 -6 -61z m243 18 c-3 -9 -8 -14 -10 -11 -3 3 -2 9 2 15 9 16 15 13 8 -4z m-23 -59 c0 -3 -5 -8 -12 -12 -7 -4 -8 -3 -4 4 7 12 16 16 16 8z m-130 -231 c0 -10 -58 -120 -74 -140 -9 -11 0 12 20 52 19 40 33 77 29 83 -3 5 1 10 9 10 9 0 16 -2 16 -5z m232 -54 c47 -30 68 -56 68 -85 0 -9 -4 -16 -10 -16 -5 0 -10 8 -10 18 0 25 -46 67 -100 91 -37 17 -41 21 -19 21 14 0 46 -13 71 -29z m-172 -61 c14 -11 31 -20 39 -20 8 0 11 -3 8 -7 -8 -8 -87 27 -87 39 0 13 13 9 40 -12z"/>
</g>
<g id="layer104" fill="#642f21" stroke="none">
<path d="M0 560 l0 -560 475 0 475 0 0 560 0 560 -475 0 -475 0 0 -560z m437 453 c-4 -3 -10 -3 -14 0 -3 4 0 7 7 7 7 0 10 -3 7 -7z m246 -8 c40 -16 53 -30 37 -40 -5 -3 -10 -1 -10 5 0 6 -19 19 -42 30 -51 22 -37 27 15 5z m131 -132 c50 -80 71 -180 56 -264 -12 -63 -31 -112 -49 -124 -5 -3 0 21 11 52 39 111 16 243 -62 361 -18 26 -19 32 -7 32 9 0 31 -26 51 -57z m-354 -226 c-9 -58 -1 -137 19 -190 13 -34 13 -37 2 -37 -12 0 -41 108 -41 153 0 39 19 141 26 135 2 -3 -1 -30 -6 -61z m231 -14 c-11 -21 -32 -51 -46 -68 l-26 -30 26 45 c14 25 33 63 43 85 10 25 18 34 20 23 2 -9 -6 -34 -17 -55z m-141 -259 c0 -18 -77 -148 -107 -181 l-35 -38 24 35 c43 60 90 159 84 175 -4 10 1 15 14 15 11 0 20 -3 20 -6z m232 -53 c47 -30 68 -56 68 -85 0 -9 -4 -16 -10 -16 -5 0 -10 6 -10 14 0 33 -85 94 -150 107 -35 7 -34 7 11 8 34 1 56 -6 91 -28z m-125 -78 c50 -21 53 -24 22 -20 -54 8 -109 34 -109 53 0 13 3 14 15 4 8 -7 40 -23 72 -37z"/>
</g>
<g id="layer105" fill="#3e9801" stroke="none">
<path d="M0 560 l0 -560 475 0 475 0 0 560 0 560 -475 0 -475 0 0 -560z m515 438 c14 -6 8 -7 -20 -3 -22 2 -55 5 -73 5 -21 0 -31 4 -27 10 7 12 85 4 120 -12z m191 -3 c38 -24 18 -39 -20 -15 -19 11 -52 20 -77 21 -38 1 -40 2 -19 9 33 12 86 5 116 -15z m108 -122 c50 -80 71 -180 56 -264 -12 -63 -31 -112 -49 -124 -5 -3 0 21 11 52 39 111 16 243 -62 361 -18 26 -19 32 -7 32 9 0 31 -26 51 -57z m-288 -67 c-19 -25 -42 -69 -52 -98 -21 -65 -21 -177 0 -237 18 -50 20 -61 8 -61 -18 0 -42 104 -42 181 0 67 5 90 29 142 25 53 72 117 86 117 3 0 -10 -20 -29 -44z m165 -173 c-11 -21 -32 -51 -46 -68 l-26 -30 26 45 c14 25 33 63 43 85 10 25 18 34 20 23 2 -9 -6 -34 -17 -55z m-141 -259 c0 -18 -77 -148 -107 -181 l-35 -38 24 35 c43 60 90 159 84 175 -4 10 1 15 14 15 11 0 20 -3 20 -6z m232 -53 c47 -30 68 -56 68 -85 0 -9 -4 -16 -10 -16 -5 0 -10 6 -10 14 0 33 -85 94 -150 107 -35 7 -34 7 11 8 34 1 56 -6 91 -28z m-125 -78 c50 -21 53 -24 22 -20 -54 8 -109 34 -109 53 0 13 3 14 15 4 8 -7 40 -23 72 -37z"/>
</g>
<g id="layer106" fill="#3ea201" stroke="none">
<path d="M0 560 l0 -560 475 0 475 0 0 560 0 560 -475 0 -475 0 0 -560z m515 438 c14 -6 8 -7 -20 -3 -22 2 -55 5 -73 5 -21 0 -31 4 -27 10 7 12 85 4 120 -12z m191 -3 c38 -24 18 -39 -20 -15 -19 11 -52 20 -77 21 -38 1 -40 2 -19 9 33 12 86 5 116 -15z m118 -139 c46 -83 60 -165 45 -253 -13 -77 -27 -109 -61 -139 -56 -52 -162 -83 -228 -69 l-32 7 39 39 c21 21 44 39 51 39 6 0 12 6 12 14 0 8 4 16 8 18 12 4 60 126 64 162 4 38 -10 41 -47 10 -16 -15 -24 -23 -17 -20 15 9 15 6 -3 -37 -11 -28 -19 -34 -35 -30 -11 3 -23 10 -26 15 -10 16 -34 -13 -34 -43 0 -32 24 -31 33 2 3 10 12 19 21 19 21 0 20 -7 -4 -38 -13 -16 -17 -28 -10 -32 7 -4 3 -13 -9 -24 -11 -10 -25 -15 -31 -11 -6 3 -9 1 -8 -6 2 -7 -12 -17 -29 -22 -22 -7 -33 -16 -33 -28 0 -35 -17 -19 -33 32 -10 30 -17 84 -17 130 0 67 5 90 29 142 25 53 72 117 86 117 3 0 -10 -20 -29 -44 -53 -70 -81 -178 -68 -264 9 -58 28 -49 25 13 -4 68 5 121 19 107 6 -6 5 -16 -3 -30 -7 -12 -10 -25 -5 -29 10 -11 36 25 30 42 -8 19 14 55 31 55 18 0 19 7 3 25 -11 11 -17 9 -35 -13 -38 -45 -26 -3 17 66 22 35 45 60 50 57 6 -3 10 -2 10 4 0 18 62 54 114 67 28 7 44 13 36 13 -13 1 -13 2 0 11 20 12 35 -2 74 -74z m-133 -223 c-11 -21 -32 -51 -46 -68 l-26 -30 26 45 c14 25 33 63 43 85 10 25 18 34 20 23 2 -9 -6 -34 -17 -55z m-141 -258 c0 -10 -56 -120 -62 -123 -5 -2 -8 -10 -8 -18 0 -8 -4 -14 -9 -14 -5 0 -12 -8 -15 -18 -3 -9 -16 -23 -28 -31 -21 -13 -22 -13 -10 1 9 11 10 22 2 39 -10 22 -10 22 -6 2 2 -12 -3 -28 -10 -34 -8 -7 -13 -18 -10 -25 3 -8 2 -13 -2 -12 -13 3 -62 -25 -62 -35 0 -6 -3 -7 -7 -4 -3 4 -12 -1 -19 -11 -12 -16 -13 -16 -19 1 -8 20 32 59 53 52 7 -3 11 -1 8 4 -3 5 5 20 18 34 14 15 31 39 39 54 8 16 26 51 40 78 25 48 44 61 90 64 9 1 17 -1 17 -4z m181 -26 c46 -16 96 -54 114 -88 14 -27 13 -29 -20 -57 -42 -35 -109 -63 -153 -63 -39 -1 -102 23 -102 40 0 8 5 7 17 -2 10 -8 14 -9 10 -2 -4 6 -3 14 3 18 14 9 2 25 -18 24 -14 0 -13 -2 3 -9 11 -5 18 -9 15 -10 -31 -9 -42 -6 -51 16 -12 33 -12 67 1 59 6 -3 11 0 11 7 1 7 2 20 3 28 1 15 76 49 112 49 12 1 36 -4 55 -10z"/>
<path d="M712 878 c5 -34 38 -37 38 -4 0 20 -5 26 -21 26 -15 0 -20 -5 -17 -22z"/>
<path d="M670 864 c0 -8 5 -12 10 -9 6 4 8 11 5 16 -9 14 -15 11 -15 -7z"/>
<path d="M607 833 c-7 -11 10 -40 18 -31 4 4 3 14 -3 24 -5 9 -12 12 -15 7z"/>
<path d="M574 818 c-4 -7 -3 -8 4 -4 12 7 16 16 8 16 -3 0 -8 -5 -12 -12z"/>
<path d="M575 792 c-20 -17 -20 -17 0 -39 23 -24 58 -16 38 9 -6 7 -12 21 -14 30 -4 15 -5 15 -24 0z"/>
<path d="M676 771 c-3 -5 1 -14 9 -21 12 -10 18 -10 30 0 18 15 11 30 -15 30 -10 0 -21 -4 -24 -9z"/>
<path d="M777 733 c-2 -10 -8 -25 -11 -33 -5 -11 -1 -16 14 -16 11 0 20 6 20 13 0 7 5 13 10 13 6 0 10 9 10 20 0 25 -36 27 -43 3z"/>
<path d="M585 670 c3 -5 16 -10 28 -9 21 0 21 1 2 9 -28 12 -37 12 -30 0z"/>
<path d="M800 650 c0 -11 7 -20 15 -20 8 0 15 9 15 20 0 11 -7 20 -15 20 -8 0 -15 -9 -15 -20z"/>
<path d="M687 543 c-11 -10 -8 -53 3 -53 6 0 10 14 10 30 0 31 -2 35 -13 23z"/>
<path d="M740 536 c0 -9 5 -16 10 -16 6 0 10 4 10 9 0 6 -4 13 -10 16 -5 3 -10 -1 -10 -9z"/>
<path d="M570 510 c0 -7 3 -10 7 -7 3 4 3 10 0 14 -4 3 -7 0 -7 -7z"/>
<path d="M724 461 c-17 -10 -40 -21 -50 -23 -13 -3 -9 -6 13 -9 19 -3 30 -2 26 4 -4 6 3 8 15 5 12 -3 20 -2 19 2 -1 5 7 16 18 24 30 23 -2 21 -41 -3z"/>
<path d="M673 463 c4 -3 10 -3 14 0 3 4 0 7 -7 7 -7 0 -10 -3 -7 -7z"/>
<path d="M622 447 c-9 -11 -10 -17 -2 -22 15 -9 23 -1 18 21 -3 15 -4 16 -16 1z"/>
<path d="M511 354 c0 -11 3 -14 6 -6 3 7 2 16 -1 19 -3 4 -6 -2 -5 -13z"/>
<path d="M475 350 c3 -5 8 -10 11 -10 3 0 2 5 -1 10 -3 6 -8 10 -11 10 -3 0 -2 -4 1 -10z"/>
<path d="M690 329 c0 -6 -7 -8 -16 -5 -23 9 -64 -4 -64 -20 0 -8 9 -14 19 -14 11 0 22 -4 25 -9 10 -16 61 4 58 22 -2 10 3 17 10 17 9 0 9 3 -2 10 -20 13 -30 12 -30 -1z"/>
<path d="M688 263 c7 -3 16 -2 19 1 4 3 -2 6 -13 5 -11 0 -14 -3 -6 -6z"/>
<path d="M617 195 c-4 -8 -2 -17 3 -20 6 -4 10 3 10 14 0 25 -6 27 -13 6z"/>
</g>
<g id="layer107" fill="#4b732b" stroke="none">
<path d="M0 560 l0 -560 475 0 475 0 0 560 0 560 -475 0 -475 0 0 -560z m515 438 c14 -6 8 -7 -20 -3 -22 2 -55 5 -73 5 -21 0 -31 4 -27 10 7 12 85 4 120 -12z m191 -3 c38 -24 18 -39 -20 -15 -19 11 -52 20 -77 21 -38 1 -40 2 -19 9 33 12 86 5 116 -15z m76 -72 c34 -38 76 -131 87 -190 13 -67 1 -174 -25 -224 -18 -36 -74 -81 -91 -75 -8 3 -12 2 -9 -3 13 -20 -104 -47 -160 -36 l-37 6 57 56 c32 31 66 73 76 92 29 58 51 144 40 155 -14 14 -43 -16 -59 -61 -7 -21 -23 -51 -35 -68 -33 -45 -41 -59 -28 -51 19 12 14 -10 -7 -28 -11 -10 -25 -15 -31 -11 -6 3 -9 1 -8 -6 2 -7 -12 -17 -29 -22 -22 -7 -33 -16 -33 -28 0 -35 -17 -19 -33 32 -10 30 -17 84 -17 130 0 67 5 90 29 142 25 53 72 117 86 117 3 0 -10 -20 -29 -44 -47 -62 -69 -135 -69 -224 1 -41 5 -78 10 -83 6 -6 9 23 9 73 0 75 3 90 34 153 42 85 88 131 177 178 37 20 71 37 74 37 3 0 13 -8 21 -17z m-91 -290 c-11 -21 -32 -51 -46 -68 l-26 -30 26 45 c14 25 33 63 43 85 10 25 18 34 20 23 2 -9 -6 -34 -17 -55z m-141 -260 c0 -12 -54 -118 -62 -121 -5 -2 -8 -10 -8 -18 0 -8 -4 -14 -9 -14 -5 0 -12 -8 -15 -18 -3 -9 -16 -23 -28 -31 -18 -10 -20 -10 -10 0 20 22 14 33 -8 14 -12 -11 -18 -25 -15 -34 3 -8 3 -12 -1 -8 -7 6 -71 -36 -85 -56 -4 -5 -12 -6 -18 -3 -13 8 -15 36 -3 36 15 0 98 84 114 115 8 17 26 50 38 75 12 25 30 51 38 58 17 13 72 17 72 5z m181 -24 c46 -16 96 -54 114 -88 14 -27 13 -29 -20 -57 -42 -35 -109 -63 -153 -63 -39 -1 -102 23 -102 40 0 8 5 7 18 -2 15 -13 16 -12 3 3 -7 10 -17 15 -22 12 -10 -6 -29 37 -29 67 0 11 5 17 10 14 6 -3 11 0 11 7 1 7 2 20 3 28 1 15 76 49 112 49 12 1 36 -4 55 -10z"/>
<path d="M617 273 c-3 -5 5 -15 19 -22 31 -14 34 -14 34 -1 0 6 -9 10 -19 10 -11 0 -21 5 -23 12 -3 8 -6 9 -11 1z"/>
<path d="M610 230 c8 -5 24 -9 35 -9 l20 0 -20 9 c-11 5 -27 9 -35 9 -13 1 -13 0 0 -9z"/>
<path d="M688 233 c7 -3 16 -2 19 1 4 3 -2 6 -13 5 -11 0 -14 -3 -6 -6z"/>
</g>
<g id="layer108" fill="#ac3920" stroke="none">
</g>
<g id="layer109" fill="#548f2a" stroke="none">
<path d="M0 560 l0 -560 475 0 475 0 0 560 0 560 -475 0 -475 0 0 -560z m515 438 c14 -6 8 -7 -20 -3 -22 2 -55 5 -73 5 -21 0 -31 4 -27 10 7 12 85 4 120 -12z m191 -3 c38 -24 18 -39 -20 -15 -19 11 -52 20 -77 21 -38 1 -40 2 -19 9 33 12 86 5 116 -15z m76 -72 c34 -38 76 -131 87 -190 13 -67 1 -174 -25 -224 -18 -36 -74 -81 -91 -75 -8 3 -12 2 -9 -3 13 -20 -104 -47 -160 -36 l-37 6 57 56 c63 62 85 99 110 182 25 86 -15 96 -50 13 -22 -54 -8 -50 18 4 22 46 23 47 26 21 5 -45 -121 -209 -148 -192 -6 3 -9 1 -8 -6 2 -7 -12 -17 -29 -22 -22 -7 -33 -16 -33 -28 0 -35 -17 -19 -33 32 -10 30 -17 84 -17 130 0 67 5 90 29 142 25 53 72 117 86 117 3 0 -10 -20 -29 -44 -19 -25 -42 -68 -51 -95 -17 -53 -22 -180 -7 -206 5 -10 8 16 8 67 0 75 3 90 34 153 42 85 88 131 177 178 37 20 71 37 74 37 3 0 13 -8 21 -17z m-232 -550 c0 -11 -67 -139 -82 -160 -29 -37 -108 -112 -130 -123 -15 -7 -9 2 18 27 22 21 49 49 59 63 10 14 1 7 -21 -15 -59 -60 -94 -86 -104 -80 -12 8 -13 35 -2 35 15 0 98 84 114 115 8 17 26 50 38 75 12 25 30 51 38 58 17 13 72 17 72 5z m181 -24 c47 -16 96 -54 114 -89 15 -28 14 -30 -19 -56 -43 -35 -111 -63 -154 -63 -39 -1 -102 23 -102 40 0 8 5 7 18 -2 15 -13 16 -12 3 3 -7 10 -17 15 -22 12 -10 -6 -29 37 -29 67 0 11 5 17 10 14 6 -3 11 0 11 7 1 7 2 20 3 28 1 15 76 49 112 49 12 1 36 -4 55 -10z"/>
<path d="M624 573 c-30 -41 -39 -62 -15 -33 23 27 44 60 38 60 -2 0 -12 -12 -23 -27z"/>
<path d="M620 270 c0 -7 3 -10 7 -7 3 4 3 10 0 14 -4 3 -7 0 -7 -7z"/>
<path d="M640 256 c0 -2 7 -6 15 -10 8 -3 15 -1 15 4 0 6 -7 10 -15 10 -8 0 -15 -2 -15 -4z"/>
<path d="M600 236 c0 -2 7 -7 16 -10 8 -3 12 -2 9 4 -6 10 -25 14 -25 6z"/>
<path d="M693 233 c4 -3 10 -3 14 0 3 4 0 7 -7 7 -7 0 -10 -3 -7 -7z"/>
</g>
<g id="layer110" fill="#db3110" stroke="none">
<path d="M0 560 l0 -560 475 0 475 0 0 560 0 560 -475 0 -475 0 0 -560z m515 438 c14 -6 8 -7 -20 -3 -22 2 -55 5 -73 5 -21 0 -31 4 -27 10 7 12 85 4 120 -12z m191 -3 c38 -24 18 -39 -20 -15 -19 11 -52 20 -77 21 -38 1 -40 2 -19 9 33 12 86 5 116 -15z m76 -72 c34 -38 76 -131 87 -190 13 -67 1 -174 -24 -223 -39 -76 -175 -135 -266 -115 l-33 7 24 22 c49 42 130 169 117 182 -2 2 -20 -19 -40 -45 -42 -57 -90 -97 -129 -106 -18 -5 -28 -14 -28 -26 0 -35 -17 -19 -33 32 -10 30 -17 84 -17 130 0 67 5 90 29 142 25 53 72 117 86 117 3 0 -10 -20 -29 -44 -19 -25 -42 -68 -51 -95 -17 -52 -22 -180 -8 -205 4 -8 6 21 4 65 -3 76 -1 85 33 154 41 83 85 125 188 181 74 39 71 39 90 17z m-232 -550 c0 -11 -66 -139 -82 -160 -7 -9 -36 -40 -65 -68 -54 -55 -102 -81 -128 -71 -25 9 -17 44 14 60 37 20 97 89 140 162 19 33 41 65 50 72 16 13 71 17 71 5z m181 -24 c47 -16 96 -54 114 -89 15 -28 14 -30 -19 -56 -103 -82 -231 -83 -269 -1 -19 39 -23 82 -7 72 6 -3 11 0 11 7 1 7 2 20 3 28 1 15 76 49 112 49 12 1 36 -4 55 -10z"/>
</g>
<g id="layer111" fill="#b1472e" stroke="none">
<path d="M0 560 l0 -560 475 0 475 0 0 560 0 560 -475 0 -475 0 0 -560z m517 439 c12 -5 25 -5 27 0 3 5 28 11 55 15 50 7 111 -9 125 -33 4 -6 -21 -28 -58 -51 -87 -55 -159 -136 -186 -207 -22 -58 -30 -188 -13 -217 4 -8 6 21 4 65 -3 76 -1 85 34 155 41 83 94 133 198 185 69 36 72 34 121 -55 46 -83 60 -165 45 -253 -13 -77 -27 -109 -61 -139 -56 -52 -162 -83 -229 -69 l-33 7 24 22 c49 42 130 169 117 182 -2 2 -20 -19 -40 -45 -42 -57 -90 -97 -129 -106 -18 -5 -28 -14 -28 -26 0 -36 -106 -50 -181 -24 -50 18 -112 73 -104 93 2 7 1 11 -4 8 -19 -12 -36 61 -36 149 0 72 5 100 24 142 13 29 27 50 31 48 5 -3 12 0 16 6 4 8 3 9 -4 5 -20 -12 -14 5 15 43 79 106 167 138 270 100z m33 -626 c0 -11 -66 -139 -82 -160 -7 -9 -36 -40 -65 -68 -54 -55 -102 -81 -128 -71 -25 9 -17 44 14 60 37 20 97 89 140 162 19 33 41 65 50 72 16 13 71 17 71 5z m181 -24 c47 -16 96 -54 114 -89 15 -28 14 -30 -19 -56 -103 -82 -231 -83 -269 -1 -19 39 -23 82 -7 72 6 -3 11 0 11 7 1 7 2 20 3 28 1 15 76 49 112 49 12 1 36 -4 55 -10z"/>
<path d="M210 744 c-17 -43 -12 -164 9 -209 19 -42 71 -94 97 -96 8 -1 19 -2 24 -3 6 -1 10 4 10 9 0 6 -8 10 -18 10 -9 0 -17 6 -17 13 0 6 -3 11 -6 10 -11 -5 -50 35 -65 64 -8 16 -11 28 -6 28 5 0 4 18 -1 40 -7 25 -14 35 -19 27 -4 -7 -8 10 -8 38 0 36 3 46 10 35 7 -11 9 -5 5 20 -4 27 -3 30 4 15 9 -19 10 -19 10 3 1 30 -17 28 -29 -4z"/>
</g>
<g id="layer112" fill="#000000" stroke="none">
<path d="M0 560 l0 -560 475 0 475 0 0 560 0 560 -475 0 -475 0 0 -560z m471 450 c36 -7 71 -7 112 0 62 12 114 2 137 -25 9 -11 -1 -22 -54 -55 -87 -55 -159 -135 -186 -207 -22 -58 -30 -188 -13 -217 4 -8 6 21 4 65 -3 76 -1 85 34 155 41 83 94 133 198 185 69 36 72 34 121 -55 46 -83 60 -165 45 -253 -13 -77 -27 -109 -61 -139 -56 -52 -162 -83 -229 -69 l-33 7 24 22 c49 42 130 169 117 182 -2 2 -20 -19 -40 -45 -42 -57 -90 -97 -129 -106 -18 -5 -28 -14 -28 -26 0 -36 -106 -50 -181 -24 -50 18 -112 73 -104 93 2 7 1 11 -4 8 -19 -12 -36 61 -36 149 0 72 5 100 24 142 13 29 27 50 31 48 5 -3 12 0 16 6 4 8 3 9 -4 5 -20 -12 -14 5 15 43 38 51 72 80 118 101 49 23 41 22 106 10z m79 -637 c0 -11 -66 -139 -82 -160 -7 -9 -36 -40 -65 -68 -54 -55 -102 -81 -128 -71 -25 9 -17 44 14 60 37 20 97 89 140 162 19 33 41 65 50 72 16 13 71 17 71 5z m181 -24 c47 -16 96 -54 114 -89 15 -28 14 -30 -19 -56 -103 -82 -231 -83 -269 -1 -19 39 -23 82 -7 72 6 -3 11 0 11 7 1 7 2 20 3 28 1 15 76 49 112 49 12 1 36 -4 55 -10z"/>
<path d="M202 795 c-7 -14 -12 -34 -12 -43 1 -9 7 1 15 23 16 45 14 58 -3 20z"/>
<path d="M210 744 c-17 -43 -12 -164 9 -209 19 -42 71 -94 97 -96 8 -1 19 -2 24 -3 6 -1 10 4 10 9 0 6 -8 10 -18 10 -9 0 -17 6 -17 13 0 6 -3 11 -6 10 -11 -5 -50 35 -65 64 -8 16 -10 28 -5 28 5 0 7 10 3 22 -5 21 -6 21 -14 2 -5 -12 -6 -5 -3 21 4 29 3 36 -4 25 -8 -11 -11 -2 -11 35 0 36 3 46 10 35 7 -11 9 -5 5 20 -4 27 -3 30 4 15 9 -19 10 -19 10 3 1 30 -17 28 -29 -4z"/>
<path d="M172 660 c0 -14 2 -19 5 -12 2 6 2 18 0 25 -3 6 -5 1 -5 -13z"/>
<path d="M185 550 c3 -5 8 -10 11 -10 2 0 4 5 4 10 0 6 -5 10 -11 10 -5 0 -7 -4 -4 -10z"/>
<path d="M240 459 c29 -24 90 -52 97 -45 2 2 -6 7 -19 11 -13 4 -37 18 -55 31 -39 29 -58 32 -23 3z"/>
<path d="M353 403 c4 -3 10 -3 14 0 3 4 0 7 -7 7 -7 0 -10 -3 -7 -7z"/>
</g>
<g id="layer113" fill="#e4d9b7" stroke="none">
<path d="M0 560 l0 -560 475 0 475 0 0 560 0 560 -475 0 -475 0 0 -560z m471 450 c36 -7 71 -7 112 0 62 12 114 2 137 -25 9 -11 -1 -22 -54 -55 -87 -55 -159 -135 -186 -207 -22 -58 -30 -188 -13 -217 4 -8 6 21 4 65 -3 76 -1 85 34 155 41 83 94 133 198 185 69 36 72 34 121 -55 46 -83 60 -165 45 -253 -13 -77 -27 -109 -61 -139 -56 -52 -162 -83 -229 -69 l-33 7 24 22 c49 42 130 169 117 182 -2 2 -20 -19 -40 -45 -42 -57 -90 -97 -129 -106 -18 -5 -28 -14 -28 -26 0 -12 -11 -21 -37 -28 -110 -31 -212 13 -266 114 -18 33 -22 57 -22 136 0 90 2 99 37 170 42 86 104 153 163 180 49 22 42 21 106 9z m79 -637 c0 -11 -66 -139 -82 -160 -7 -9 -36 -40 -65 -68 -54 -55 -102 -81 -128 -71 -25 9 -17 44 14 60 37 20 97 89 140 162 19 33 41 65 50 72 16 13 71 17 71 5z m181 -24 c47 -16 96 -54 114 -89 15 -28 14 -30 -19 -56 -103 -82 -231 -83 -269 -1 -19 39 -23 82 -7 72 6 -3 11 0 11 7 1 7 2 20 3 28 1 15 76 49 112 49 12 1 36 -4 55 -10z"/>
<path d="M210 744 c-17 -43 -12 -164 9 -209 17 -38 72 -95 91 -95 5 0 17 -3 27 -7 10 -3 -4 13 -30 37 -26 23 -57 60 -67 80 -25 49 -35 135 -22 183 12 42 6 50 -8 11z"/>
</g>
<g id="layer114" fill="#e0e1ce" stroke="none">
<path d="M0 560 l0 -560 475 0 475 0 0 560 0 560 -475 0 -475 0 0 -560z m471 450 c36 -7 71 -7 112 0 62 12 114 2 137 -25 9 -11 -1 -22 -54 -55 -66 -42 -146 -121 -171 -169 -7 -14 -16 -42 -19 -61 -6 -31 -4 -28 18 18 34 70 107 139 195 186 84 44 85 44 135 -48 46 -83 60 -165 45 -253 -13 -77 -27 -109 -61 -139 -56 -52 -162 -83 -229 -69 l-33 7 28 24 c30 26 96 122 96 139 0 6 -26 -15 -58 -46 -35 -34 -72 -60 -90 -64 -22 -4 -32 -12 -32 -25 0 -13 -11 -22 -37 -29 -110 -31 -212 13 -266 114 -18 33 -22 57 -22 136 0 90 2 99 37 170 42 86 104 153 163 180 49 22 42 21 106 9z m79 -637 c0 -11 -67 -140 -82 -159 -80 -99 -138 -144 -187 -144 -46 0 -35 30 30 89 61 56 134 149 141 181 2 8 12 20 23 27 22 14 75 17 75 6z m181 -24 c47 -16 96 -54 114 -89 15 -28 14 -30 -19 -56 -103 -82 -231 -83 -269 -1 -19 39 -23 82 -7 72 6 -3 11 0 11 7 1 7 2 20 3 28 1 15 76 49 112 49 12 1 36 -4 55 -10z"/>
</g>
<g id="layer115" fill="#f1f3d8" stroke="none">
<path d="M0 560 l0 -560 475 0 475 0 0 560 -1 560 -474 0 -475 0 0 -560z m480 450 c24 -7 57 -7 108 1 65 11 76 10 107 -7 19 -10 35 -23 35 -29 0 -5 -21 -21 -47 -35 -27 -14 -69 -46 -94 -71 -44 -43 -109 -142 -108 -164 0 -5 9 8 21 29 30 59 106 127 187 170 85 44 89 43 139 -52 66 -125 64 -291 -5 -372 -50 -60 -169 -101 -243 -85 l-32 7 35 35 c39 37 92 121 83 130 -3 3 -8 -1 -12 -10 -8 -23 -104 -94 -136 -102 -18 -5 -28 -14 -28 -26 0 -12 -11 -21 -37 -28 -110 -31 -212 13 -266 114 -18 33 -22 57 -22 136 0 90 2 99 37 170 40 82 100 150 157 178 42 22 73 25 121 11z m70 -641 c0 -14 -67 -139 -86 -160 -8 -8 -14 -20 -14 -26 0 -5 -18 -27 -40 -47 -64 -59 -144 -84 -157 -50 -4 11 14 34 58 73 61 56 134 149 141 181 6 31 98 58 98 29z m181 -20 c43 -15 94 -53 116 -86 17 -26 17 -26 -19 -57 -39 -34 -117 -66 -161 -66 -48 0 -92 25 -110 63 -19 39 -23 82 -7 72 6 -3 11 0 11 7 1 7 2 20 3 28 1 15 76 49 112 49 12 1 36 -4 55 -10z"/>
<path d="M470 680 c0 -7 3 -10 7 -7 3 4 3 10 0 14 -4 3 -7 0 -7 -7z"/>
</g>
<g id="layer116" fill="#fcfdfd" stroke="none">
<path d="M0 560 l0 -560 475 0 475 0 0 560 -1 560 -474 0 -475 0 0 -560z m480 450 c24 -7 57 -7 108 1 65 11 76 10 107 -7 32 -17 48 -44 27 -44 -21 0 -133 -81 -126 -92 4 -6 3 -8 -4 -4 -6 3 -21 -8 -33 -26 -25 -34 -18 -32 51 17 25 18 69 45 98 59 50 25 55 26 72 11 30 -27 77 -126 90 -189 18 -89 -2 -204 -47 -256 -50 -60 -169 -101 -243 -85 l-32 7 37 36 c34 33 61 79 52 89 -2 2 -24 -12 -48 -32 -24 -19 -56 -37 -71 -41 -19 -4 -28 -12 -28 -24 0 -13 -11 -22 -37 -29 -110 -31 -212 13 -266 114 -18 33 -22 57 -22 136 0 90 2 99 37 170 40 82 100 150 157 178 42 22 73 25 121 11z m70 -641 c0 -14 -67 -139 -86 -160 -8 -8 -14 -20 -14 -26 0 -14 -81 -88 -118 -107 -37 -19 -64 -20 -80 -4 -20 20 -14 46 15 65 39 25 132 123 139 145 3 10 9 16 14 13 5 -3 16 8 25 25 8 16 12 30 8 30 -5 1 3 7 17 15 30 17 80 20 80 4z m181 -20 c43 -15 94 -53 116 -86 17 -26 17 -26 -19 -57 -39 -34 -117 -66 -161 -66 -48 0 -92 25 -110 63 -19 39 -23 82 -7 72 6 -3 11 0 11 7 1 7 2 20 3 28 1 15 76 49 112 49 12 1 36 -4 55 -10z"/>
<path d="M210 744 c-6 -14 -9 -46 -9 -72 1 -46 2 -45 10 15 4 35 11 67 14 73 3 5 4 10 0 10 -3 0 -10 -12 -15 -26z"/>
<path d="M201 600 c-1 -38 32 -103 68 -133 18 -15 36 -27 41 -27 5 0 17 -3 27 -6 10 -4 -1 10 -25 31 -44 38 -91 103 -104 140 -5 17 -6 17 -7 -5z"/>
</g>


</svg>