<!DOCTYPE svg PUBLIC "-//W3C//DTD SVG 20010904//EN" "http://www.w3.org/TR/2001/REC-SVG-20010904/DTD/svg10.dtd">
<svg version="1.0" xmlns="http://www.w3.org/2000/svg" width="309px" height="265px" viewBox="0 0 3090 2650" preserveAspectRatio="xMidYMid meet">
<g id="layer101" fill="#ffffff" stroke="none">
 <path d="M556 2228 c9 -18 72 -134 139 -258 67 -124 146 -270 175 -325 29 -55 60 -113 70 -130 10 -16 34 -61 55 -100 21 -38 50 -92 66 -120 15 -27 49 -91 76 -141 238 -446 480 -884 490 -884 12 0 36 41 180 310 22 41 156 289 298 550 305 564 386 713 433 800 19 36 38 70 42 75 12 17 130 244 130 250 0 15 -50 -15 -429 -260 -635 -411 -644 -417 -660 -412 -15 4 -84 47 -368 232 -68 44 -185 120 -260 168 -76 49 -203 131 -283 183 -80 51 -151 94 -158 94 -9 0 -8 -8 4 -32z"/>
 </g>
<g id="layer102" fill="#fef4cd" stroke="none">
 <path d="M556 2228 c9 -18 72 -134 139 -258 67 -124 146 -270 175 -325 29 -55 60 -113 70 -130 10 -16 34 -61 55 -100 21 -38 50 -92 66 -120 15 -27 49 -91 76 -141 238 -446 480 -884 490 -884 12 0 36 41 180 310 22 41 156 289 298 550 305 564 386 713 433 800 19 36 38 70 42 75 12 17 130 244 130 250 0 15 -50 -15 -429 -260 -635 -411 -644 -417 -660 -412 -15 4 -84 47 -368 232 -68 44 -185 120 -260 168 -76 49 -203 131 -283 183 -80 51 -151 94 -158 94 -9 0 -8 -8 4 -32z m1880 -280 c-73 -132 -200 -367 -251 -463 -32 -60 -61 -114 -65 -120 -4 -5 -31 -55 -60 -110 -29 -55 -56 -104 -60 -110 -5 -5 -39 -68 -77 -140 -114 -213 -154 -287 -187 -345 -18 -30 -45 -81 -61 -112 -17 -32 -33 -58 -38 -58 -4 0 -6 212 -5 471 l3 471 105 72 c58 40 132 91 165 115 33 23 133 92 223 154 90 62 196 136 235 164 89 65 104 67 73 11z"/>
 </g>
<g id="layer103" fill="#cfeefa" stroke="none">
 <path d="M578 2188 c21 -40 53 -98 69 -128 17 -30 89 -163 160 -295 72 -132 248 -456 391 -720 143 -264 283 -523 311 -575 29 -52 64 -119 79 -147 14 -29 32 -53 38 -53 13 0 36 40 181 310 22 41 156 289 298 550 305 564 386 713 433 800 19 36 38 70 42 75 11 16 130 243 130 249 0 16 -33 -3 -192 -107 -95 -62 -207 -134 -248 -161 -78 -49 -418 -270 -553 -357 -44 -29 -85 -49 -95 -47 -16 5 -82 46 -369 233 -68 44 -185 120 -260 168 -76 49 -203 131 -283 183 -80 51 -151 94 -158 94 -9 0 0 -25 26 -72z m1858 -240 c-73 -132 -200 -367 -251 -463 -32 -60 -61 -114 -65 -120 -4 -5 -31 -55 -60 -110 -29 -55 -56 -104 -60 -110 -5 -5 -39 -68 -77 -140 -114 -213 -154 -287 -187 -345 -18 -30 -45 -81 -61 -112 -17 -32 -33 -58 -38 -58 -4 0 -6 212 -5 471 l3 471 105 72 c58 40 132 91 165 115 33 23 133 92 223 154 90 62 196 136 235 164 89 65 104 67 73 11z"/>
 </g>
<g id="layer104" fill="#f8daa5" stroke="none">
 <path d="M578 2188 c21 -40 53 -98 69 -128 17 -30 89 -163 160 -295 72 -132 248 -456 391 -720 143 -264 283 -523 311 -575 29 -52 64 -119 79 -147 14 -29 32 -53 38 -53 7 0 63 93 124 207 62 115 128 237 148 273 38 70 126 232 187 345 115 213 166 306 195 360 18 33 61 112 95 175 108 201 146 271 233 429 92 169 107 201 92 201 -5 0 -87 -51 -182 -113 -95 -62 -207 -134 -248 -161 -77 -49 -417 -269 -551 -356 -42 -28 -82 -50 -91 -50 -12 0 -257 155 -645 408 -318 208 -419 271 -431 272 -9 0 0 -25 26 -72z m1858 -240 c-73 -132 -200 -367 -251 -463 -32 -60 -61 -114 -65 -120 -4 -5 -31 -55 -60 -110 -29 -55 -56 -104 -60 -110 -5 -5 -39 -68 -77 -140 -114 -213 -154 -287 -187 -345 -18 -30 -45 -81 -61 -112 -17 -32 -33 -58 -38 -58 -4 0 -6 212 -5 471 l3 471 105 72 c58 40 132 91 165 115 33 23 133 92 223 154 90 62 196 136 235 164 89 65 104 67 73 11z"/>
 </g>
<g id="layer105" fill="#a5d7f5" stroke="none">
 <path d="M550 2253 c0 -5 6 -19 13 -33 32 -61 117 -218 197 -365 90 -165 97 -177 220 -405 40 -74 98 -182 130 -240 32 -58 87 -160 124 -228 36 -67 95 -175 130 -240 35 -64 78 -144 96 -177 18 -33 53 -98 79 -145 25 -47 53 -98 62 -114 9 -17 21 -32 26 -33 6 -2 61 90 123 204 62 114 128 237 148 273 38 70 126 232 187 345 115 213 166 306 195 360 18 33 61 112 95 175 108 201 146 271 233 429 91 168 106 201 92 201 -5 0 -48 -26 -97 -58 -727 -476 -955 -622 -975 -622 -13 0 -259 156 -645 408 -282 185 -418 271 -425 272 -5 0 -8 -3 -8 -7z m1881 -315 c-16 -29 -112 -206 -213 -393 -102 -187 -206 -380 -233 -430 -26 -49 -51 -94 -55 -100 -4 -5 -31 -55 -60 -110 -181 -338 -224 -415 -233 -415 -4 0 -6 212 -5 471 l3 471 105 72 c58 40 132 91 165 115 33 23 133 92 223 154 90 62 196 136 235 164 40 29 77 53 84 53 8 0 1 -20 -16 -52z"/>
 </g>
<g id="layer106" fill="#7dc2f6" stroke="none">
 <path d="M550 2253 c0 -4 6 -19 13 -33 32 -61 117 -218 197 -365 90 -165 97 -177 220 -405 40 -74 98 -182 130 -240 32 -58 87 -160 124 -228 36 -67 95 -175 130 -240 35 -64 78 -144 96 -177 18 -33 53 -98 79 -145 25 -47 53 -98 62 -114 29 -53 26 -56 122 124 27 52 53 100 57 105 4 6 29 51 55 100 27 50 91 169 143 265 52 96 111 204 130 240 19 36 61 112 92 170 31 58 79 146 105 195 27 50 56 104 65 120 9 17 35 64 57 105 97 180 242 448 262 485 12 22 17 41 12 43 -4 1 -48 -23 -97 -55 -746 -489 -956 -623 -978 -623 -9 0 -71 36 -139 79 -234 152 -519 337 -681 442 -197 129 -256 164 -256 152z m1881 -315 c-16 -29 -112 -206 -213 -393 -102 -187 -206 -380 -233 -430 -26 -49 -51 -94 -55 -100 -4 -5 -31 -55 -60 -110 -181 -338 -224 -415 -233 -415 -4 0 -6 212 -5 471 l3 471 105 72 c58 40 132 91 165 115 33 23 133 92 223 154 90 62 196 136 235 164 40 29 77 53 84 53 8 0 1 -20 -16 -52z"/>
 </g>
<g id="layer107" fill="#8bb2d5" stroke="none">
 <path d="M550 2253 c0 -4 6 -19 13 -33 32 -61 117 -218 197 -365 90 -165 97 -177 220 -405 40 -74 98 -182 130 -240 32 -58 87 -160 124 -228 36 -67 95 -175 130 -240 35 -64 78 -144 96 -177 18 -33 53 -98 79 -145 25 -47 53 -98 62 -114 22 -42 32 -42 54 1 11 21 38 72 61 113 22 41 60 111 84 155 23 44 77 143 118 220 41 77 88 161 104 188 15 26 28 49 28 52 0 2 97 183 216 402 119 219 234 432 256 473 23 41 48 89 58 105 57 100 129 245 121 245 -5 0 -49 -26 -98 -58 -747 -489 -955 -622 -977 -622 -9 0 -71 36 -139 79 -234 152 -519 337 -681 442 -197 129 -256 164 -256 152z m1881 -315 c-16 -29 -112 -206 -213 -393 -102 -187 -206 -380 -233 -430 -26 -49 -54 -99 -60 -110 -7 -11 -32 -56 -55 -100 -123 -231 -231 -425 -236 -425 -2 0 -4 213 -4 474 l0 475 128 88 c70 48 143 99 163 113 20 14 111 77 203 140 92 63 200 139 239 167 40 29 77 53 84 53 8 0 1 -20 -16 -52z"/>
 </g>
<g id="layer108" fill="#cfb08e" stroke="none">
 <path d="M2654 2236 c-61 -43 -722 -472 -900 -585 -61 -39 -119 -71 -128 -71 -16 0 -52 22 -301 183 -71 47 -168 109 -215 139 -47 30 -187 121 -312 202 -125 81 -232 146 -238 144 -6 -2 -5 -12 3 -28 29 -55 115 -214 197 -365 90 -165 97 -177 220 -405 40 -74 98 -182 130 -240 32 -58 87 -160 124 -227 36 -68 95 -176 130 -240 35 -65 80 -149 101 -188 21 -38 56 -104 79 -145 23 -41 47 -88 55 -103 18 -34 39 -31 60 8 9 17 38 71 65 120 27 50 64 119 84 155 19 36 65 121 102 190 331 610 579 1068 612 1130 23 41 48 89 58 105 62 108 120 228 113 235 -4 4 -22 -2 -39 -14z m-223 -298 c-16 -29 -112 -206 -213 -393 -102 -187 -206 -380 -233 -430 -26 -49 -54 -99 -60 -110 -7 -11 -32 -56 -55 -100 -123 -231 -231 -425 -236 -425 -2 0 -4 213 -4 474 l0 475 128 88 c70 48 143 99 163 113 20 14 111 77 203 140 92 63 200 139 239 167 40 29 77 53 84 53 8 0 1 -20 -16 -52z"/>
 </g>
<g id="layer109" fill="#dba267" stroke="none">
 <path d="M560 2232 c0 -10 4 -22 9 -27 5 -6 30 -50 56 -100 27 -49 87 -162 135 -250 90 -165 97 -177 220 -405 40 -74 98 -182 130 -240 32 -58 87 -160 124 -227 36 -68 95 -176 130 -240 35 -65 80 -149 101 -188 21 -38 56 -104 79 -145 23 -41 47 -88 55 -103 18 -34 39 -31 60 8 9 17 38 71 65 120 27 50 64 119 84 155 19 36 65 121 102 190 331 610 579 1068 612 1130 23 41 48 89 58 105 31 54 120 224 120 230 0 11 -18 4 -61 -24 -24 -15 -136 -88 -249 -161 -113 -73 -251 -162 -308 -199 -57 -36 -178 -115 -270 -175 -92 -60 -171 -110 -177 -112 -10 -4 -51 22 -310 189 -71 47 -168 109 -215 139 -47 30 -187 120 -311 201 -124 81 -229 147 -232 147 -4 0 -7 -8 -7 -18z m1871 -294 c-16 -29 -112 -206 -213 -393 -102 -187 -206 -380 -233 -430 -26 -49 -54 -99 -60 -110 -7 -11 -32 -56 -55 -100 -123 -231 -231 -425 -236 -425 -2 0 -4 213 -4 474 l0 475 128 88 c70 48 143 99 163 113 20 14 111 77 203 140 92 63 200 139 239 167 40 29 77 53 84 53 8 0 1 -20 -16 -52z"/>
 </g>
<g id="layer110" fill="#6ba2d7" stroke="none">
 <path d="M560 2241 c0 -9 28 -65 95 -187 39 -72 110 -202 212 -389 33 -60 76 -139 95 -175 19 -36 51 -94 70 -130 20 -36 106 -195 193 -355 86 -159 203 -375 260 -480 57 -104 109 -203 116 -218 16 -34 37 -31 58 8 9 17 38 71 65 120 27 50 64 119 84 155 19 36 65 121 102 190 331 610 579 1068 612 1130 23 41 48 89 58 105 31 54 120 224 120 230 0 11 -18 4 -61 -24 -76 -49 -480 -310 -572 -369 -49 -32 -163 -106 -255 -166 -92 -60 -171 -110 -177 -112 -10 -4 -51 22 -310 189 -71 47 -168 109 -215 139 -47 30 -187 120 -311 201 -124 81 -229 147 -232 147 -4 0 -7 -4 -7 -9z m1884 -283 c-9 -18 -73 -136 -142 -263 -68 -126 -140 -259 -159 -295 -20 -36 -46 -83 -58 -105 -12 -22 -39 -70 -59 -108 -83 -154 -112 -208 -174 -322 -36 -66 -81 -149 -101 -185 -20 -36 -52 -95 -71 -132 -19 -38 -38 -68 -42 -68 -5 0 -8 213 -8 474 l0 475 128 88 c70 48 143 99 163 113 20 14 111 77 203 140 92 63 200 139 239 167 86 62 105 67 81 21z"/>
 </g>
<g id="layer111" fill="#b48f69" stroke="none">
 <path d="M560 2241 c0 -9 28 -65 95 -187 39 -72 110 -202 212 -389 33 -60 76 -139 95 -175 19 -36 51 -94 70 -130 20 -36 106 -195 193 -355 86 -159 203 -375 260 -480 57 -104 109 -202 116 -218 25 -55 15 -70 259 383 40 74 100 185 133 245 33 61 88 162 122 225 34 63 79 147 100 185 21 39 68 126 105 195 38 69 138 254 224 412 86 159 156 290 156 293 0 3 -4 5 -8 5 -8 0 -26 -11 -349 -220 -106 -69 -256 -165 -333 -215 -77 -49 -194 -125 -260 -168 l-120 -79 -102 65 c-57 35 -170 108 -253 162 -82 54 -172 112 -200 130 -27 17 -152 98 -276 178 -124 81 -229 147 -232 147 -4 0 -7 -4 -7 -9z m1884 -283 c-9 -18 -73 -136 -142 -263 -68 -126 -140 -259 -159 -295 -20 -36 -46 -83 -58 -105 -12 -22 -39 -70 -59 -108 -83 -154 -112 -208 -174 -322 -36 -66 -81 -149 -101 -185 -20 -36 -52 -95 -71 -132 -19 -38 -38 -68 -42 -68 -5 0 -8 213 -8 474 l0 475 128 88 c70 48 143 99 163 113 20 14 111 77 203 140 92 63 200 139 239 167 86 62 105 67 81 21z"/>
 </g>
<g id="layer112" fill="#668db6" stroke="none">
 <path d="M560 2241 c0 -12 18 -45 280 -526 96 -176 131 -241 195 -360 21 -38 61 -113 90 -165 29 -52 73 -133 98 -180 25 -47 93 -173 151 -280 59 -107 137 -252 174 -322 37 -70 72 -128 78 -128 12 0 38 46 234 410 40 74 100 185 133 245 33 61 88 162 122 225 34 63 79 147 100 185 21 39 68 126 105 195 38 69 138 254 224 412 86 159 156 291 156 294 0 13 -1 13 -345 -211 -44 -28 -114 -73 -155 -100 -41 -27 -127 -82 -190 -123 -129 -84 -179 -116 -297 -191 l-83 -53 -102 65 c-57 35 -170 108 -253 162 -82 54 -172 112 -200 130 -27 17 -152 98 -276 178 -124 81 -229 147 -232 147 -4 0 -7 -4 -7 -9z m1884 -283 c-33 -64 -306 -569 -359 -663 -12 -22 -39 -70 -59 -108 -77 -144 -107 -198 -202 -372 -54 -99 -116 -215 -138 -257 -23 -43 -44 -78 -48 -78 -5 0 -8 213 -8 474 l0 475 128 88 c70 48 143 99 163 113 20 14 111 77 203 140 92 63 200 139 239 167 86 62 105 67 81 21z"/>
 </g>
<g id="layer113" fill="#c37a44" stroke="none">
 <path d="M560 2241 c0 -12 18 -45 280 -526 96 -176 131 -241 195 -360 21 -38 61 -113 90 -165 29 -52 73 -133 98 -180 25 -47 93 -173 151 -280 59 -107 137 -252 174 -322 37 -70 72 -128 78 -128 9 0 32 39 140 235 30 55 158 294 207 385 22 41 45 84 52 95 7 11 38 70 70 130 32 61 61 115 65 120 4 6 31 55 60 110 29 55 61 114 70 130 10 17 37 66 60 110 24 44 69 127 100 185 31 58 79 146 105 195 46 85 61 114 120 220 45 82 74 96 -320 -160 -44 -28 -114 -73 -155 -100 -41 -27 -127 -82 -190 -123 -263 -171 -376 -242 -384 -242 -4 0 -123 75 -264 166 -141 92 -279 181 -307 199 -27 18 -117 77 -200 130 -299 196 -295 193 -295 176z m1884 -283 c-33 -64 -306 -569 -359 -663 -12 -22 -39 -70 -59 -108 -77 -144 -107 -198 -202 -372 -54 -99 -116 -215 -138 -257 -23 -43 -44 -78 -48 -78 -5 0 -8 213 -8 474 l0 475 127 88 c70 48 139 96 153 105 14 9 138 95 275 192 138 96 256 175 263 175 9 1 8 -7 -4 -31z"/>
 </g>
<g id="layer114" fill="#a1704b" stroke="none">
 <path d="M560 2243 c0 -8 82 -162 308 -578 101 -187 200 -369 219 -405 20 -36 46 -83 58 -105 12 -22 38 -69 57 -105 19 -36 99 -184 178 -330 79 -146 165 -303 190 -349 25 -47 50 -86 56 -88 9 -3 31 34 140 232 30 55 158 294 207 385 22 41 45 84 52 95 7 11 38 70 70 130 32 61 61 115 65 120 4 6 31 55 60 110 29 55 61 114 70 130 10 17 37 66 60 110 24 44 69 127 100 185 31 58 79 146 105 195 46 85 61 114 120 220 45 82 74 96 -320 -160 -44 -28 -114 -73 -155 -100 -41 -27 -127 -82 -190 -123 -263 -171 -376 -242 -384 -242 -4 0 -123 75 -264 166 -141 92 -279 181 -307 199 -27 18 -117 77 -200 130 -292 191 -295 193 -295 178z m1893 -270 c-4 -9 -68 -130 -143 -267 -197 -362 -191 -350 -392 -721 -102 -187 -205 -377 -229 -422 -24 -46 -47 -83 -51 -83 -5 0 -8 213 -8 474 l0 475 127 88 c70 48 139 96 153 105 14 9 138 95 275 192 138 96 255 175 262 175 8 1 10 -6 6 -16z"/>
 </g>
<g id="layer115" fill="#4d709c" stroke="none">
 <path d="M560 2244 c0 -4 23 -50 51 -103 62 -115 303 -560 334 -616 12 -22 43 -80 70 -130 26 -49 56 -103 65 -120 24 -41 68 -123 125 -230 26 -49 51 -94 55 -100 4 -5 32 -57 62 -115 75 -142 115 -215 274 -505 12 -21 26 -41 31 -42 8 -3 31 35 139 232 30 55 158 294 207 385 22 41 45 84 52 95 7 11 38 70 70 130 32 61 61 115 65 120 4 6 31 55 60 110 29 55 61 114 70 130 10 17 37 66 60 110 24 44 69 127 100 185 31 58 79 146 105 195 46 86 62 115 120 221 43 77 53 82 -255 -119 -372 -243 -457 -297 -598 -389 -85 -55 -164 -104 -177 -110 -20 -9 -51 8 -281 157 -143 92 -281 182 -309 200 -27 18 -117 77 -200 130 -291 190 -295 193 -295 179z m1893 -271 c-3 -9 -29 -57 -56 -107 -66 -121 -240 -442 -290 -536 -22 -41 -60 -110 -84 -154 -24 -43 -43 -80 -43 -82 0 -3 -10 -21 -23 -42 -13 -20 -44 -75 -69 -122 -25 -47 -75 -139 -110 -205 -36 -66 -80 -148 -98 -182 -19 -35 -37 -63 -42 -63 -4 0 -8 213 -8 474 l0 475 127 88 c70 48 139 96 153 105 14 9 138 95 275 192 138 96 255 175 262 175 8 1 10 -6 6 -16z"/>
 </g>
<g id="layer116" fill="#375791" stroke="none">
 <path d="M560 2244 c0 -4 23 -50 51 -103 62 -115 303 -560 334 -616 12 -22 43 -80 70 -130 26 -49 56 -103 65 -120 24 -41 68 -123 125 -230 26 -49 51 -94 55 -100 4 -5 32 -57 62 -115 75 -142 115 -215 274 -505 35 -64 28 -70 132 125 31 58 64 119 74 135 9 17 35 64 56 105 22 41 49 93 62 115 13 22 43 78 68 125 24 47 48 90 52 95 9 12 54 96 133 246 55 104 79 149 134 247 14 26 48 90 76 142 27 52 64 120 82 150 18 30 56 100 85 155 29 55 67 125 83 155 53 98 59 110 55 120 -2 6 -94 -50 -206 -123 -111 -72 -235 -153 -275 -178 -39 -26 -176 -114 -303 -197 -128 -84 -243 -157 -257 -163 -24 -11 -40 -2 -216 112 -105 68 -209 135 -231 149 -22 14 -99 63 -170 110 -412 269 -470 305 -470 294z m1893 -271 c-3 -9 -29 -57 -56 -107 -66 -121 -240 -442 -290 -536 -22 -41 -60 -110 -84 -154 -24 -43 -43 -80 -43 -82 0 -3 -10 -21 -23 -42 -13 -20 -44 -75 -69 -122 -25 -47 -75 -139 -110 -205 -36 -66 -80 -148 -98 -182 -19 -35 -37 -63 -42 -63 -4 0 -8 213 -8 474 l0 474 113 78 c61 43 135 94 162 113 28 19 122 85 210 146 88 61 196 136 240 168 83 58 109 69 98 40z"/>
 </g>
<g id="layer117" fill="#8f5637" stroke="none">
 <path d="M560 2245 c0 -4 23 -51 51 -104 62 -115 303 -560 334 -616 12 -22 43 -80 70 -130 26 -49 56 -103 65 -120 24 -41 68 -123 125 -230 26 -49 51 -94 55 -100 4 -5 32 -57 62 -115 75 -142 115 -215 274 -505 12 -21 26 -40 30 -42 5 -1 25 28 45 65 43 81 302 559 337 622 22 40 90 167 205 380 48 91 82 152 112 205 24 43 77 142 158 295 28 52 61 112 74 132 13 21 23 39 23 41 0 2 25 50 56 106 30 57 54 107 52 112 -2 5 -94 -51 -206 -124 -111 -72 -235 -153 -275 -178 -39 -26 -176 -114 -303 -197 -128 -84 -243 -157 -257 -163 -24 -11 -43 -1 -254 136 -125 80 -289 186 -363 235 -135 89 -384 249 -440 283 -17 11 -30 16 -30 12z m1893 -272 c-3 -9 -29 -57 -56 -107 -66 -121 -240 -442 -290 -536 -22 -41 -60 -110 -84 -154 -24 -43 -43 -80 -43 -82 0 -3 -10 -21 -23 -42 -13 -20 -44 -75 -69 -122 -25 -47 -75 -139 -110 -205 -36 -66 -80 -148 -99 -183 -18 -34 -38 -61 -44 -59 -7 3 -10 154 -10 472 l0 469 80 56 c44 31 118 82 165 115 47 32 157 109 245 170 88 61 196 136 240 168 83 58 109 69 98 40z"/>
 </g>
<g id="layer118" fill="#605b5d" stroke="none">
 <path d="M560 2244 c0 -6 18 -41 105 -199 12 -22 127 -233 255 -470 128 -236 275 -509 328 -605 52 -96 110 -204 130 -240 19 -36 47 -87 62 -115 15 -27 44 -81 65 -120 96 -178 117 -215 123 -215 4 0 23 31 43 68 43 81 302 558 337 622 22 40 90 167 205 380 48 91 82 152 112 205 24 43 77 142 158 295 28 52 61 112 74 132 13 21 23 39 23 41 0 2 25 50 56 106 30 57 54 107 52 112 -2 5 -94 -51 -206 -124 -111 -72 -235 -153 -275 -178 -39 -26 -176 -114 -303 -197 -128 -84 -243 -157 -257 -163 -24 -11 -43 -1 -254 136 -125 80 -289 186 -363 235 -135 89 -384 249 -440 283 -17 11 -30 15 -30 11z m1889 -281 c-6 -15 -18 -41 -28 -58 -10 -16 -38 -66 -61 -110 -24 -44 -51 -93 -60 -110 -9 -16 -38 -70 -65 -120 -26 -49 -63 -116 -81 -148 -19 -32 -34 -60 -34 -62 0 -3 -130 -244 -192 -355 -14 -25 -39 -70 -55 -100 -145 -273 -228 -420 -237 -417 -8 3 -11 150 -11 472 l0 469 80 56 c44 31 118 82 165 115 47 32 157 109 245 170 88 61 196 136 240 168 92 65 110 70 94 30z"/>
 </g>
<g id="layer119" fill="#734a36" stroke="none">
 <path d="M560 2244 c0 -6 19 -42 105 -199 12 -22 127 -233 255 -470 128 -236 275 -509 328 -605 52 -96 110 -204 130 -240 19 -36 47 -87 62 -115 15 -27 44 -81 65 -120 100 -186 117 -215 125 -210 9 6 27 38 218 390 74 138 146 270 160 295 22 40 90 167 205 380 48 91 82 152 112 205 24 43 77 142 158 295 28 52 61 112 74 132 13 21 23 39 23 41 0 2 25 50 56 106 30 57 54 107 52 112 -2 5 -94 -51 -206 -124 -111 -72 -235 -153 -275 -178 -39 -26 -176 -114 -303 -197 -128 -84 -243 -157 -257 -163 -24 -11 -43 -1 -254 136 -125 80 -289 186 -363 235 -122 80 -423 273 -456 293 -8 4 -14 5 -14 1z m1889 -281 c-6 -15 -18 -41 -28 -58 -10 -16 -38 -66 -61 -110 -24 -44 -51 -93 -60 -110 -9 -16 -38 -70 -65 -120 -26 -49 -63 -116 -81 -148 -19 -32 -34 -60 -34 -62 0 -3 -130 -244 -192 -355 -14 -25 -39 -70 -55 -100 -145 -273 -228 -420 -237 -417 -8 3 -11 150 -11 472 l0 469 80 56 c44 31 118 82 165 115 47 32 157 109 245 170 88 61 196 136 240 168 92 65 110 70 94 30z"/>
 </g>
<g id="layer120" fill="#384b6c" stroke="none">
 <path d="M560 2245 c0 -4 16 -37 36 -73 20 -37 50 -92 67 -122 64 -118 86 -158 122 -225 21 -38 61 -113 90 -165 29 -52 69 -126 90 -165 21 -38 52 -97 70 -130 18 -33 79 -145 135 -250 99 -183 122 -227 187 -345 17 -30 49 -90 72 -133 23 -43 60 -112 83 -155 23 -42 56 -103 73 -135 18 -32 36 -59 41 -59 11 -1 31 35 216 377 77 143 152 280 166 305 22 40 90 166 205 380 48 91 82 152 112 205 24 43 77 142 158 295 28 52 61 112 74 132 13 21 23 39 23 41 0 2 25 50 56 106 30 57 53 105 50 108 -6 7 -250 -149 -824 -524 -119 -79 -223 -143 -231 -143 -12 0 -257 154 -601 380 -122 80 -423 273 -456 293 -8 4 -14 5 -14 2z m1889 -282 c-6 -15 -18 -41 -28 -58 -10 -16 -38 -66 -61 -110 -24 -44 -51 -93 -60 -110 -9 -16 -38 -70 -65 -120 -26 -49 -63 -116 -81 -148 -19 -32 -34 -60 -34 -62 0 -3 -130 -244 -192 -355 -14 -25 -39 -70 -55 -100 -145 -273 -228 -420 -237 -417 -8 3 -11 150 -11 472 l0 469 80 56 c44 31 118 82 165 115 47 32 157 109 245 170 88 61 196 136 240 168 92 65 110 70 94 30z"/>
 </g>
<g id="layer121" fill="#6b3c33" stroke="none">
 <path d="M560 2245 c0 -4 16 -37 36 -73 20 -37 50 -92 67 -122 64 -118 86 -158 122 -225 21 -38 61 -113 90 -165 29 -52 69 -126 90 -165 21 -38 52 -97 70 -130 18 -33 79 -145 135 -250 99 -183 122 -227 187 -345 17 -30 49 -90 72 -133 23 -43 60 -112 83 -155 23 -42 56 -103 73 -135 18 -32 36 -59 41 -60 8 -2 71 106 177 306 88 166 245 455 261 480 7 12 39 72 71 132 125 237 149 281 170 315 11 19 38 69 59 110 22 41 42 80 46 85 4 6 34 60 65 120 32 61 61 115 66 120 4 6 33 60 65 120 31 61 63 121 70 135 7 13 11 26 9 28 -5 6 -280 -170 -823 -525 -119 -79 -224 -143 -233 -143 -8 0 -52 24 -96 53 -45 28 -172 111 -282 182 -190 122 -271 175 -551 357 -144 93 -140 90 -140 83z m1889 -282 c-6 -15 -18 -41 -28 -58 -10 -16 -38 -66 -61 -110 -24 -44 -51 -93 -60 -110 -9 -16 -38 -70 -65 -120 -26 -49 -63 -116 -81 -148 -19 -32 -34 -60 -34 -62 0 -3 -130 -244 -192 -355 -14 -25 -39 -70 -55 -100 -145 -273 -228 -420 -237 -417 -8 3 -11 150 -11 472 l0 469 80 56 c44 31 118 82 165 115 47 32 157 109 245 170 88 61 196 136 240 168 92 65 110 70 94 30z"/>
 </g>
<g id="layer122" fill="#5a4437" stroke="none">
 <path d="M560 2245 c0 -7 66 -131 80 -150 4 -5 33 -59 65 -120 31 -60 61 -114 65 -120 4 -5 31 -55 60 -110 29 -55 58 -109 65 -120 7 -11 33 -58 57 -105 44 -82 203 -378 276 -510 52 -95 209 -385 247 -455 122 -227 149 -274 155 -270 7 4 85 143 188 335 107 200 233 433 246 453 7 12 39 72 71 132 125 237 149 281 170 315 11 19 38 69 59 110 22 41 42 80 46 85 4 6 34 60 65 120 32 61 61 115 66 120 4 6 33 60 65 120 31 61 63 121 70 135 7 13 11 26 9 28 -5 6 -280 -170 -823 -525 -119 -79 -224 -143 -233 -143 -8 0 -52 24 -96 53 -45 28 -172 111 -282 182 -190 122 -271 175 -551 357 -144 93 -140 90 -140 83z m1889 -282 c-6 -15 -18 -41 -28 -58 -10 -16 -38 -66 -61 -110 -24 -44 -51 -93 -60 -110 -9 -16 -38 -70 -65 -120 -26 -49 -63 -116 -81 -148 -19 -32 -34 -60 -34 -62 0 -3 -130 -244 -192 -355 -14 -25 -39 -70 -55 -100 -145 -273 -228 -420 -237 -417 -8 3 -11 150 -11 472 l0 469 80 56 c44 31 118 82 165 115 47 32 157 109 245 170 88 61 196 136 240 168 92 65 110 70 94 30z"/>
 </g>
<g id="layer123" fill="#333a66" stroke="none">
 <path d="M597 2173 c19 -38 39 -72 43 -78 4 -5 33 -59 65 -120 32 -60 61 -114 65 -120 4 -5 31 -55 60 -110 29 -55 56 -104 60 -110 4 -5 33 -59 65 -120 31 -60 61 -114 65 -120 4 -5 33 -59 65 -120 32 -60 68 -128 80 -150 12 -22 37 -67 55 -100 77 -142 225 -415 255 -470 126 -234 149 -274 155 -270 7 4 85 143 188 335 107 200 233 433 246 453 7 12 39 72 71 132 125 237 149 281 170 315 11 19 38 69 59 110 22 41 42 80 46 85 4 6 34 60 65 120 32 61 61 115 66 120 4 6 33 60 65 120 31 61 63 121 70 135 7 13 12 26 10 27 -4 5 -142 -81 -386 -242 -190 -124 -274 -178 -335 -217 -16 -10 -95 -61 -175 -113 -80 -52 -152 -95 -161 -95 -8 0 -52 24 -96 53 -45 28 -172 111 -282 182 -231 149 -386 249 -554 358 -65 43 -122 77 -127 77 -5 0 7 -30 27 -67z m1852 -210 c-6 -15 -18 -41 -28 -58 -10 -16 -38 -66 -61 -110 -24 -44 -51 -93 -60 -110 -9 -16 -38 -70 -65 -120 -26 -49 -63 -116 -81 -148 -19 -32 -34 -60 -34 -62 0 -3 -130 -244 -192 -355 -14 -25 -39 -70 -55 -100 -145 -273 -228 -420 -237 -417 -8 3 -11 150 -11 472 l0 469 80 56 c44 31 118 82 165 115 47 32 157 109 245 170 88 61 196 136 240 168 92 65 110 70 94 30z"/>
 </g>
<g id="layer124" fill="#33374e" stroke="none">
 <path d="M597 2173 c19 -38 39 -72 43 -78 4 -5 33 -59 65 -120 32 -60 61 -114 65 -120 4 -5 31 -55 60 -110 29 -55 56 -104 60 -110 4 -5 33 -59 65 -120 31 -60 61 -114 65 -120 4 -5 33 -59 65 -120 32 -60 68 -128 80 -150 12 -22 37 -67 55 -100 77 -142 225 -415 255 -470 159 -295 148 -278 165 -256 8 12 26 42 40 68 23 44 67 125 147 273 36 65 221 407 271 500 19 36 47 88 62 115 15 28 47 86 70 130 43 80 83 154 125 230 133 242 334 620 331 623 -4 4 -144 -84 -386 -243 -190 -124 -274 -178 -335 -217 -16 -10 -95 -61 -175 -113 -80 -52 -152 -95 -161 -95 -8 0 -52 24 -96 53 -110 71 -463 299 -571 368 -48 31 -154 100 -235 153 -81 53 -152 96 -157 96 -5 0 7 -30 27 -67z m1852 -210 c-6 -15 -18 -41 -28 -58 -10 -16 -38 -66 -61 -110 -24 -44 -51 -93 -60 -110 -9 -16 -38 -70 -65 -120 -26 -49 -63 -116 -81 -148 -19 -32 -34 -60 -34 -62 0 -3 -130 -244 -192 -355 -14 -25 -39 -70 -55 -100 -145 -273 -228 -420 -237 -417 -8 3 -11 150 -11 472 l0 469 80 56 c44 31 118 82 165 115 47 32 157 109 245 170 88 61 196 136 240 168 92 65 110 70 94 30z"/>
 </g>
<g id="layer125" fill="#4c3633" stroke="none">
 <path d="M597 2173 c19 -38 39 -72 43 -78 4 -5 33 -59 65 -120 32 -60 61 -114 65 -120 4 -5 31 -55 60 -110 29 -55 56 -104 60 -110 4 -5 33 -59 65 -120 31 -60 61 -114 65 -120 4 -5 33 -59 65 -120 32 -60 68 -128 80 -150 12 -22 37 -67 55 -100 77 -142 225 -415 255 -470 127 -236 149 -275 156 -268 9 10 30 48 100 179 29 55 55 104 59 109 4 6 31 55 60 110 53 101 94 176 135 250 32 56 78 143 143 265 30 58 58 110 62 115 8 11 36 61 160 295 83 155 104 194 176 325 109 200 162 300 160 303 -4 4 -147 -86 -386 -243 -190 -124 -274 -178 -335 -217 -16 -10 -95 -61 -175 -113 -80 -52 -153 -95 -163 -95 -18 0 -31 8 -317 195 -90 59 -199 129 -241 155 -42 27 -157 101 -255 166 -170 111 -239 154 -249 154 -2 0 12 -30 32 -67z m1852 -210 c-6 -15 -18 -41 -28 -58 -10 -16 -38 -66 -61 -110 -24 -44 -51 -93 -60 -110 -9 -16 -38 -70 -65 -120 -26 -49 -63 -116 -81 -148 -19 -32 -34 -60 -34 -62 0 -3 -130 -244 -192 -355 -14 -25 -39 -70 -55 -100 -145 -273 -228 -420 -237 -417 -8 3 -12 152 -14 470 l-2 467 47 33 c26 17 58 43 72 57 13 14 21 19 17 12 -9 -15 136 83 170 114 12 12 24 20 26 18 2 -2 18 9 35 25 18 16 34 27 36 25 2 -2 15 6 28 18 14 13 27 23 30 23 5 0 115 75 269 184 97 69 115 75 99 34z"/>
 </g>
<g id="layer126" fill="#ff555d" stroke="none">
 <path d="M570 2234 c0 -7 72 -143 191 -361 18 -32 44 -80 59 -108 15 -27 44 -81 65 -120 38 -70 78 -144 120 -220 12 -22 40 -74 62 -115 22 -41 49 -91 60 -111 12 -19 44 -80 73 -135 29 -54 56 -103 60 -109 4 -5 33 -59 65 -120 31 -60 61 -114 65 -120 4 -5 34 -62 68 -125 33 -63 77 -147 99 -185 21 -39 44 -83 52 -98 8 -15 18 -24 22 -20 9 10 30 48 100 179 29 55 55 104 59 109 4 6 31 55 60 110 53 101 94 176 135 250 32 56 78 143 143 265 30 58 58 110 62 115 8 11 36 61 160 295 83 155 104 194 176 325 110 200 162 300 160 303 -4 3 -131 -77 -431 -273 -194 -127 -339 -221 -399 -258 -11 -7 -62 -40 -115 -74 -53 -35 -104 -63 -114 -63 -18 0 -31 8 -317 195 -90 59 -199 129 -241 155 -42 27 -157 101 -255 166 -193 126 -244 157 -244 148z m1886 -256 c-1 -7 -12 -31 -24 -53 -13 -22 -22 -44 -22 -49 1 -5 -3 -12 -8 -15 -5 -3 -26 -37 -47 -76 -21 -38 -42 -76 -48 -82 -5 -7 -6 -13 -2 -13 5 0 1 -8 -7 -17 -25 -29 -87 -150 -81 -157 4 -3 1 -6 -5 -6 -6 0 -14 -10 -18 -22 -3 -13 -12 -30 -19 -38 -8 -8 -15 -22 -17 -30 -2 -8 -6 -17 -10 -20 -6 -5 -36 -60 -136 -250 -18 -36 -37 -69 -42 -75 -16 -21 -70 -125 -65 -125 3 0 -3 -10 -14 -21 -11 -12 -23 -35 -26 -50 -4 -16 -11 -29 -16 -29 -6 0 -7 -4 -4 -10 3 -5 2 -10 -3 -10 -5 0 -17 -19 -28 -42 -10 -24 -21 -45 -25 -48 -3 -3 -32 -54 -63 -115 -66 -128 -81 -150 -95 -140 -8 4 -11 149 -11 471 l0 464 47 33 c26 17 58 43 72 57 13 14 21 19 17 12 -9 -15 136 83 170 114 12 12 24 20 26 18 2 -2 18 9 35 25 18 16 34 27 36 25 2 -2 15 6 28 18 14 13 27 23 30 23 5 0 115 75 269 184 86 60 110 72 106 49z"/>
 </g>

</svg>